<?xml version="1.0" encoding="UTF-8" standalone="no"?><!DOCTYPE svg PUBLIC "-//W3C//DTD SVG 1.0//EN" "http://www.w3.org/TR/SVG/DTD/svg10.dtd"><svg style="shape-rendering:geometricPrecision;" xml:space="preserve"  xmlns:xlink="http://www.w3.org/1999/xlink" xmlns="http://www.w3.org/2000/svg" preserveAspectRatio="xMidYMid meet" viewBox="0 0 530 900" x="0px" y="0px" width="530px" height="900px"><g font-family="'Hiragino Kaku Gothic ProN W3',Meiryo,sans-serif"><text x="0" y="19" font-size="14">クエッションマーク？ばっかりが　アタマをグルグル</text><text x="0" y="38" font-size="14">なんでまた泣いてるの?　話しておくれよ</text><text x="0" y="57" font-size="14">キミは「コレ切ってただけだよ」と</text><text x="0" y="76" font-size="14">タマネギ片手に振り向いた　それだけ?少し気になった</text><text x="0" y="95" font-size="14"></text><text x="0" y="114" font-size="14">言葉が足りない　わかっているんだ　一口ウィスキー飲んだら言うよ</text><text x="0" y="133" font-size="14"></text><text x="0" y="152" font-size="14">It's Only Love Forever. Always I Like You!</text><text x="0" y="171" font-size="14">誰にも邪魔させはしない</text><text x="0" y="190" font-size="14">It's Only Love Forever. Always I Love You!</text><text x="0" y="209" font-size="14">キミが教えてくれた　ボクを強くさせる　Always そう! I Love You!</text><text x="0" y="228" font-size="14"></text><text x="0" y="247" font-size="14">驚きだらけの春は過ぎたけど</text><text x="0" y="266" font-size="14">いつも心には終わらない青春</text><text x="0" y="285" font-size="14"></text><text x="0" y="304" font-size="14">抱きしめたいんだ　ほんとはいつでも　もう一口飲んだらいくよ</text><text x="0" y="323" font-size="14"></text><text x="0" y="342" font-size="14">It's Only Love Forever. Always I Like You!</text><text x="0" y="361" font-size="14">誰にも邪魔させはしない</text><text x="0" y="380" font-size="14">It's Only Love Forever. Always I Love You!</text><text x="0" y="399" font-size="14">今日はボクが何か作るよ</text><text x="0" y="418" font-size="14">It's Only Love Forever. Always I Like You!</text><text x="0" y="437" font-size="14">ごめんよ　寂しくさせて</text><text x="0" y="456" font-size="14">It's Only Love Forever. Always I Love You!</text><text x="0" y="475" font-size="14">キミが教えてくれた　ボクを強くさせる　Always そう！ I Love You!</text><text x="0" y="494" font-size="14">タマネギがやけに目にしみる</text><rect width="530" height="900" x="0" y="0" fill="white" fill-opacity="0" /></g></svg>