<?xml version="1.0" encoding="UTF-8" standalone="no"?><!DOCTYPE svg PUBLIC "-//W3C//DTD SVG 1.0//EN" "http://www.w3.org/TR/SVG/DTD/svg10.dtd"><svg style="shape-rendering:geometricPrecision;" xml:space="preserve"  xmlns:xlink="http://www.w3.org/1999/xlink" xmlns="http://www.w3.org/2000/svg" preserveAspectRatio="xMidYMid meet" viewBox="0 0 530 900" x="0px" y="0px" width="530px" height="900px"><g font-family="'Hiragino Kaku Gothic ProN W3',Meiryo,sans-serif"><text x="0" y="19" font-size="14">街には空っ風が吹いてる　胸には闇が寝転んでる</text><text x="0" y="38" font-size="14">この景色はいつか見た気がして　車飛ばしてる　初めてを探しに</text><text x="0" y="57" font-size="14"></text><text x="0" y="76" font-size="14">Are you ready?　さよなら</text><text x="0" y="95" font-size="14">欲まみれのガラクタ</text><text x="0" y="114" font-size="14">Are you ready?　飛び込め</text><text x="0" y="133" font-size="14">今ならまだ間に合う</text><text x="0" y="152" font-size="14"></text><text x="0" y="171" font-size="14">本当に欲しいものは　エキサイトする心臓だろ</text><text x="0" y="190" font-size="14"></text><text x="0" y="209" font-size="14">Are you ready?　Are you ready?</text><text x="0" y="228" font-size="14">思い出してごらんよ　あの日のロックンロール</text><text x="0" y="247" font-size="14"></text><text x="0" y="266" font-size="14">昨日にスコアをつけるなら　55点　今日も似たようなもの</text><text x="0" y="285" font-size="14">進入禁止の標識蹴飛ばして　飛び立ったカラスが大声で鳴いている</text><text x="0" y="304" font-size="14"></text><text x="0" y="323" font-size="14">Are you ready?　さよなら</text><text x="0" y="342" font-size="14">黒いシャツの憂鬱よ</text><text x="0" y="361" font-size="14">Are you ready?　飛び込め</text><text x="0" y="380" font-size="14">今ならまだ間に合う</text><text x="0" y="399" font-size="14">Are you ready?　行こうぜ</text><text x="0" y="418" font-size="14">重たい腰あげて</text><text x="0" y="437" font-size="14">Are you ready?　飛び込め</text><text x="0" y="456" font-size="14">ネットなんかに出てないぜ</text><text x="0" y="475" font-size="14"></text><text x="0" y="494" font-size="14">本当に欲しいものは　エキサイトする心臓だろ</text><text x="0" y="513" font-size="14"></text><text x="0" y="532" font-size="14">Are you ready?　Are you ready?</text><text x="0" y="551" font-size="14">ふと見上げた空には流れ星</text><text x="0" y="570" font-size="14">Are you ready?　Are you ready?</text><text x="0" y="589" font-size="14">Are you ready?　Are you ready?</text><text x="0" y="608" font-size="14">声が枯れるまで　ボクは歌うロックンロール</text><rect width="530" height="900" x="0" y="0" fill="white" fill-opacity="0" /></g></svg>