<?xml version="1.0" encoding="UTF-8" standalone="no"?><!DOCTYPE svg PUBLIC "-//W3C//DTD SVG 1.0//EN" "http://www.w3.org/TR/SVG/DTD/svg10.dtd"><svg style="shape-rendering:geometricPrecision;" xml:space="preserve"  xmlns:xlink="http://www.w3.org/1999/xlink" xmlns="http://www.w3.org/2000/svg" preserveAspectRatio="xMidYMid meet" viewBox="0 0 530 900" x="0px" y="0px" width="530px" height="900px"><g font-family="'Hiragino Kaku Gothic ProN W3',Meiryo,sans-serif"><text x="0" y="19" font-size="14">手に入れたい　手に入れたいもの</text><text x="0" y="38" font-size="14">何処にもない　俺たちのロックンロール</text><text x="0" y="57" font-size="14">心に聞かせる</text><text x="0" y="76" font-size="14"></text><text x="0" y="95" font-size="14">アレも欲しい　コレも欲しいけど</text><text x="0" y="114" font-size="14">心が言う　それでいいの？ロックンロール</text><text x="0" y="133" font-size="14">それが　道しるべ</text><text x="0" y="152" font-size="14"></text><text x="0" y="171" font-size="14">I LOVE YOU　I LOVE YOU</text><text x="0" y="190" font-size="14">愛してる　好きだよ</text><text x="0" y="209" font-size="14">I LOVE YOU　I LOVE YOU</text><text x="0" y="228" font-size="14">光の窓　開ける時だよ</text><text x="0" y="247" font-size="14"></text><text x="0" y="266" font-size="14">探してる　探してるんだぜ</text><text x="0" y="285" font-size="14">形には　残らない　やさしさ</text><text x="0" y="304" font-size="14">それが　道しるべ</text><text x="0" y="323" font-size="14"></text><text x="0" y="342" font-size="14">誰でもない　誰でもないんだぜ</text><text x="0" y="361" font-size="14">これだけの人がいるけれど</text><text x="0" y="380" font-size="14">あなたが　道しるべ</text><text x="0" y="399" font-size="14"></text><text x="0" y="418" font-size="14">手に入れたい　手に入れたいもの</text><text x="0" y="437" font-size="14">何処にもない　俺たちのロックンロール</text><text x="0" y="456" font-size="14">心に聞かせる</text><text x="0" y="475" font-size="14"></text><text x="0" y="494" font-size="14">I LOVE YOU　I LOVE YOU</text><text x="0" y="513" font-size="14">愛してる　好きだよ</text><text x="0" y="532" font-size="14">I LOVE YOU　I LOVE YOU</text><text x="0" y="551" font-size="14">光の窓　開ける時だよ</text><text x="0" y="570" font-size="14">I LOVE YOU　I LOVE YOU</text><text x="0" y="589" font-size="14">光の窓　開けてごらんよ</text><rect width="530" height="900" x="0" y="0" fill="white" fill-opacity="0" /></g></svg>