<?xml version="1.0" encoding="UTF-8" standalone="no"?><!DOCTYPE svg PUBLIC "-//W3C//DTD SVG 1.0//EN" "http://www.w3.org/TR/SVG/DTD/svg10.dtd"><svg style="shape-rendering:geometricPrecision;" xml:space="preserve"  xmlns:xlink="http://www.w3.org/1999/xlink" xmlns="http://www.w3.org/2000/svg" preserveAspectRatio="xMidYMid meet" viewBox="0 0 530 900" x="0px" y="0px" width="530px" height="900px"><g font-family="'Hiragino Kaku Gothic ProN W3',Meiryo,sans-serif"><text x="0" y="19" font-size="14">ある日気がつくと僕が二人</text><text x="0" y="38" font-size="14">同じ顔で同じ服を来て</text><text x="0" y="57" font-size="14">君は誰かと尋ねてみても</text><text x="0" y="76" font-size="14">わかりません　僕は君だから</text><text x="0" y="95" font-size="14"></text><text x="0" y="114" font-size="14">一人の僕が涙を流す</text><text x="0" y="133" font-size="14">一人の僕がヘラヘラ笑う</text><text x="0" y="152" font-size="14">誰も教えてくれない時は</text><text x="0" y="171" font-size="14">認めなさい　それがあなたでしょう？</text><text x="0" y="190" font-size="14"></text><text x="0" y="209" font-size="14">砂漠に赤い花　乾いた根を伸ばす</text><text x="0" y="228" font-size="14">一人じゃ怖いから君とこのままいよう</text><text x="0" y="247" font-size="14"></text><text x="0" y="266" font-size="14">月も飛ばされる嵐の夜</text><text x="0" y="285" font-size="14">赤い花が風に揺れている</text><text x="0" y="304" font-size="14">誰にも恋していない時は</text><text x="0" y="323" font-size="14">休みなさい　そして忘れなさい</text><text x="0" y="342" font-size="14"></text><text x="0" y="361" font-size="14">踊らせてもっと　泳ぎたいずっと　あの日の君のように</text><text x="0" y="380" font-size="14">夢も見れないのなら　僕はどこかへ消えよう</text><text x="0" y="399" font-size="14"></text><text x="0" y="418" font-size="14">砂漠に赤い花　恵みの雨を待つ</text><text x="0" y="437" font-size="14">一人じゃ怖いけど　君といつまで…</text><text x="0" y="456" font-size="14"></text><text x="0" y="475" font-size="14">ある日気がつくと僕が二人</text><text x="0" y="494" font-size="14">二人はキッカケを探してる</text><text x="0" y="513" font-size="14">何処にも見当たらない時には</text><text x="0" y="532" font-size="14">お待ちなさい　もう少しだけ</text><text x="0" y="551" font-size="14"></text><text x="0" y="570" font-size="14">月も飛ばされる嵐の夜</text><text x="0" y="589" font-size="14">赤い花が風に揺れている</text><text x="0" y="608" font-size="14">誰にも恋していないときは</text><text x="0" y="627" font-size="14">おやめなさい　そんな無駄なこと！</text><text x="0" y="646" font-size="14">No no no</text><text x="0" y="665" font-size="14">No no no</text><text x="0" y="684" font-size="14">Yeah yeah yeah</text><rect width="530" height="900" x="0" y="0" fill="white" fill-opacity="0" /></g></svg>