<?xml version="1.0" encoding="UTF-8" standalone="no"?><!DOCTYPE svg PUBLIC "-//W3C//DTD SVG 1.0//EN" "http://www.w3.org/TR/SVG/DTD/svg10.dtd"><svg style="shape-rendering:geometricPrecision;" xml:space="preserve"  xmlns:xlink="http://www.w3.org/1999/xlink" xmlns="http://www.w3.org/2000/svg" preserveAspectRatio="xMidYMid meet" viewBox="0 0 530 900" x="0px" y="0px" width="530px" height="900px"><g font-family="'Hiragino Kaku Gothic ProN W3',Meiryo,sans-serif"><text x="0" y="19" font-size="14">誰かと自分をくらべっこして</text><text x="0" y="38" font-size="14">結局最後は虚しくなった</text><text x="0" y="57" font-size="14">分かっちゃいるのに今日も</text><text x="0" y="76" font-size="14">よせばいいのに今日も</text><text x="0" y="95" font-size="14"></text><text x="0" y="114" font-size="14">イメージばっかに気を取られて</text><text x="0" y="133" font-size="14">気がつきゃただの八方美人</text><text x="0" y="152" font-size="14">誰かのせいにしたくて</text><text x="0" y="171" font-size="14">誰かのせいにする</text><text x="0" y="190" font-size="14"></text><text x="0" y="209" font-size="14">嫌われないようにするために</text><text x="0" y="228" font-size="14">やっぱり虚しい八方美人</text><text x="0" y="247" font-size="14">普通を隠すために</text><text x="0" y="266" font-size="14">バカがバレナイヨウニ</text><text x="0" y="285" font-size="14"></text><text x="0" y="304" font-size="14">誰かと自分をくらべっこして</text><text x="0" y="323" font-size="14">数えきれない嘘を重ねる</text><text x="0" y="342" font-size="14">本当はいったい何処だ</text><text x="0" y="361" font-size="14">本当の君は誰だ</text><text x="0" y="380" font-size="14"></text><text x="0" y="399" font-size="14">なんだか泣きたくなるな</text><text x="0" y="418" font-size="14">何も考えず泣きたくなるな</text><text x="0" y="437" font-size="14">だけど涙は出ない</text><text x="0" y="456" font-size="14">何かが邪魔して出ない</text><text x="0" y="475" font-size="14"></text><text x="0" y="494" font-size="14">不器用と言えば聞こえはいいが</text><text x="0" y="513" font-size="14">隠してみたってただの小器用</text><text x="0" y="532" font-size="14">なんだかカッコ悪いな</text><text x="0" y="551" font-size="14">とってもカッコ悪いな</text><text x="0" y="570" font-size="14"></text><text x="0" y="589" font-size="14">何だか一人になるな</text><text x="0" y="608" font-size="14">何だか一人になるな</text><text x="0" y="627" font-size="14">なりたくないのになるな</text><text x="0" y="646" font-size="14">ほんとは望んでるのかな</text><text x="0" y="665" font-size="14"></text><text x="0" y="684" font-size="14">誰かと自分をくらべっこして</text><text x="0" y="703" font-size="14">結局最後は虚しくなった</text><text x="0" y="722" font-size="14">分かっちゃいるのに今日も…</text><text x="0" y="741" font-size="14">知りたくなるのさ今日も…</text><text x="0" y="760" font-size="14"></text><text x="0" y="779" font-size="14">誰かと自分をくらべっこして</text><text x="0" y="798" font-size="14">何だか　もう疲れた</text><text x="0" y="817" font-size="14">いったい　きみは　だれだ</text><text x="0" y="836" font-size="14">ずっと考えてる</text><rect width="530" height="900" x="0" y="0" fill="white" fill-opacity="0" /></g></svg>