<?xml version="1.0" encoding="UTF-8" standalone="no"?><!DOCTYPE svg PUBLIC "-//W3C//DTD SVG 1.0//EN" "http://www.w3.org/TR/SVG/DTD/svg10.dtd"><svg style="shape-rendering:geometricPrecision;" xml:space="preserve"  xmlns:xlink="http://www.w3.org/1999/xlink" xmlns="http://www.w3.org/2000/svg" preserveAspectRatio="xMidYMid meet" viewBox="0 0 530 900" x="0px" y="0px" width="530px" height="900px"><g font-family="'Hiragino Kaku Gothic ProN W3',Meiryo,sans-serif"><text x="0" y="19" font-size="14">彼女は言った　天気予報なんて</text><text x="0" y="38" font-size="14">誰が見るのかしら　余計なお世話よ</text><text x="0" y="57" font-size="14">雲の行方を見ればいいじゃない</text><text x="0" y="76" font-size="14">明日になれば　分かる事じゃない</text><text x="0" y="95" font-size="14"></text><text x="0" y="114" font-size="14">Yeah　いい事言うぜ</text><text x="0" y="133" font-size="14">まままままったく　その通りだ！</text><text x="0" y="152" font-size="14"></text><text x="0" y="171" font-size="14">彼女は言った　土、日の渋谷には</text><text x="0" y="190" font-size="14">行きたくないわ　気持ち悪くなるし</text><text x="0" y="209" font-size="14">とうしてあんなにみんな同じなの</text><text x="0" y="228" font-size="14">それより家でいいことしましょ</text><text x="0" y="247" font-size="14"></text><text x="0" y="266" font-size="14">Yeah　いい事言うぜ</text><text x="0" y="285" font-size="14">まままままったく　その通りだ！</text><text x="0" y="304" font-size="14"></text><text x="0" y="323" font-size="14">彼女は言った　どっちだっていいじゃん</text><text x="0" y="342" font-size="14">だって精一杯やったんでしょ</text><text x="0" y="361" font-size="14">だったら別にそれでいいじゃない</text><text x="0" y="380" font-size="14">それより早く灯りを消してよ</text><text x="0" y="399" font-size="14"></text><text x="0" y="418" font-size="14">彼女は言った　声にならない声で</text><text x="0" y="437" font-size="14">耳元で言った　「ねぇ　入れてよ」</text><text x="0" y="456" font-size="14">俺は言った　「何が欲しいのさ」</text><text x="0" y="475" font-size="14">彼女は言った　声にならない声で</text><text x="0" y="494" font-size="14"></text><text x="0" y="513" font-size="14">Yeah　いい事言うぜ</text><text x="0" y="532" font-size="14">まままままったく　いい女だ！</text><text x="0" y="551" font-size="14"></text><text x="0" y="570" font-size="14">Yeah　お前が好きさ</text><text x="0" y="589" font-size="14">まままままったく　いい女だ！</text><rect width="530" height="900" x="0" y="0" fill="white" fill-opacity="0" /></g></svg>