<?xml version="1.0" encoding="UTF-8" standalone="no"?><!DOCTYPE svg PUBLIC "-//W3C//DTD SVG 1.0//EN" "http://www.w3.org/TR/SVG/DTD/svg10.dtd"><svg style="shape-rendering:geometricPrecision;" xml:space="preserve"  xmlns:xlink="http://www.w3.org/1999/xlink" xmlns="http://www.w3.org/2000/svg" preserveAspectRatio="xMidYMid meet" viewBox="0 0 530 900" x="0px" y="0px" width="530px" height="900px"><g font-family="'Hiragino Kaku Gothic ProN W3',Meiryo,sans-serif"><text x="0" y="19" font-size="14">最後のたばこに</text><text x="0" y="38" font-size="14">一人火をつけ</text><text x="0" y="57" font-size="14">薄暗い部屋の中で</text><text x="0" y="76" font-size="14">壁にもたれて</text><text x="0" y="95" font-size="14">君から漂った</text><text x="0" y="114" font-size="14">香水の匂い</text><text x="0" y="133" font-size="14">思い返すとそこに</text><text x="0" y="152" font-size="14">君が現れる</text><text x="0" y="171" font-size="14"></text><text x="0" y="190" font-size="14">不思議なまなざし</text><text x="0" y="209" font-size="14">僕は吸い込まれていった</text><text x="0" y="228" font-size="14">あの頃思い出すたび</text><text x="0" y="247" font-size="14">眩しい雨が降る</text><text x="0" y="266" font-size="14"></text><text x="0" y="285" font-size="14">ありふれた今日を変える鍵は</text><text x="0" y="304" font-size="14">今でも胸の中の壁に</text><text x="0" y="323" font-size="14">かかったまま　一人きりじゃ外せない</text><text x="0" y="342" font-size="14"></text><text x="0" y="361" font-size="14">ありふれた今日を変える鍵は</text><text x="0" y="380" font-size="14">今でも胸の中の壁に</text><text x="0" y="399" font-size="14">かかったまま　外して欲しいよ</text><text x="0" y="418" font-size="14"></text><text x="0" y="437" font-size="14">君から漂った　香水の匂い</text><text x="0" y="456" font-size="14">同じ匂いの女　君はいなくて</text><text x="0" y="475" font-size="14">あの頃思い出すたび</text><text x="0" y="494" font-size="14">眩しい雨が降る</text><text x="0" y="513" font-size="14">幻？戻らない日々</text><text x="0" y="532" font-size="14">君が夜を舞う</text><rect width="530" height="900" x="0" y="0" fill="white" fill-opacity="0" /></g></svg>