<?xml version="1.0" encoding="UTF-8" standalone="no"?><!DOCTYPE svg PUBLIC "-//W3C//DTD SVG 1.0//EN" "http://www.w3.org/TR/SVG/DTD/svg10.dtd"><svg style="shape-rendering:geometricPrecision;" xml:space="preserve"  xmlns:xlink="http://www.w3.org/1999/xlink" xmlns="http://www.w3.org/2000/svg" preserveAspectRatio="xMidYMid meet" viewBox="0 0 530 900" x="0px" y="0px" width="530px" height="900px"><g font-family="'Hiragino Kaku Gothic ProN W3',Meiryo,sans-serif"><text x="0" y="19" font-size="14">なんとなく一日が</text><text x="0" y="38" font-size="14">過ぎて行った気がしてる</text><text x="0" y="57" font-size="14">だから今日の出来事を</text><text x="0" y="76" font-size="14">紙に書いて声に出した</text><text x="0" y="95" font-size="14">浮かんだり沈んだり</text><text x="0" y="114" font-size="14">笑ったり怒ったり</text><text x="0" y="133" font-size="14">それなりに</text><text x="0" y="152" font-size="14">いろいろあったんだ</text><text x="0" y="171" font-size="14"></text><text x="0" y="190" font-size="14">劇的な瞬間は</text><text x="0" y="209" font-size="14">僕が僕じゃないようで</text><text x="0" y="228" font-size="14">だから今日の出来事を</text><text x="0" y="247" font-size="14">君にだけ聞かせたくて</text><text x="0" y="266" font-size="14">嬉しそうに悲しそうに</text><text x="0" y="285" font-size="14">君は聞いてくれたから</text><text x="0" y="304" font-size="14">一人じゃないって思った</text><text x="0" y="323" font-size="14">目を見て話すのが</text><text x="0" y="342" font-size="14">照れくさいから</text><text x="0" y="361" font-size="14">うしろからうしろから</text><text x="0" y="380" font-size="14">抱きしめた</text><text x="0" y="399" font-size="14">君の髪のいい匂い君の腕の</text><text x="0" y="418" font-size="14">やわらかさ</text><text x="0" y="437" font-size="14">この気持ち変わらないで</text><text x="0" y="456" font-size="14">またすぐに変わらないで</text><text x="0" y="475" font-size="14"></text><text x="0" y="494" font-size="14">目を見て話すのが</text><text x="0" y="513" font-size="14">照れくさいから</text><text x="0" y="532" font-size="14">うしろからうしろから</text><text x="0" y="551" font-size="14">抱きしめた</text><text x="0" y="570" font-size="14">なんとなく一日が</text><text x="0" y="589" font-size="14">過ぎて行った気がしてる</text><text x="0" y="608" font-size="14">だから今日の出来事を</text><text x="0" y="627" font-size="14">君にだけ聞かせたくて</text><text x="0" y="646" font-size="14">嬉しそうに悲しそうに</text><text x="0" y="665" font-size="14">君は聞いてくれたから</text><text x="0" y="684" font-size="14">一人じゃないって思った</text><text x="0" y="703" font-size="14">思った思った</text><rect width="530" height="900" x="0" y="0" fill="white" fill-opacity="0" /></g></svg>