<?xml version="1.0" encoding="UTF-8" standalone="no"?><!DOCTYPE svg PUBLIC "-//W3C//DTD SVG 1.0//EN" "http://www.w3.org/TR/SVG/DTD/svg10.dtd"><svg style="shape-rendering:geometricPrecision;" xml:space="preserve"  xmlns:xlink="http://www.w3.org/1999/xlink" xmlns="http://www.w3.org/2000/svg" preserveAspectRatio="xMidYMid meet" viewBox="0 0 530 900" x="0px" y="0px" width="530px" height="900px"><g font-family="'Hiragino Kaku Gothic ProN W3',Meiryo,sans-serif"><text x="0" y="19" font-size="14">時代遅れの危ねーカバン　奴らマネージャンキー</text><text x="0" y="38" font-size="14">怖くて中身は誰も知らない　奴らマネージャンキー</text><text x="0" y="57" font-size="14">あぐらかいてても儲かる村じゃ　ご機嫌伺いの猿の群れ</text><text x="0" y="76" font-size="14"></text><text x="0" y="95" font-size="14">隠蔽　増税　おなじみ不公平　サディスティックモンキー</text><text x="0" y="114" font-size="14">停電　狂言　どう?今日の湯加減　サディスティックモンキー</text><text x="0" y="133" font-size="14">あぐらかいてても儲かる村じゃ　責任逃れで右往左往</text><text x="0" y="152" font-size="14"></text><text x="0" y="171" font-size="14">ようこそここへ　猿の惑星　海底に沈む大仏様</text><text x="0" y="190" font-size="14">ようこそここへ　猿の惑星　血が流れる時が儲け時</text><text x="0" y="209" font-size="14">ウッキッキッキ!!　ウッキッキッキ!!　ウッキッキッキのキ!!</text><text x="0" y="228" font-size="14">ウッキッキッキ!!　ウッキッキッキ!!　ウッキッキッキのキ!!</text><text x="0" y="247" font-size="14"></text><text x="0" y="266" font-size="14">ガキの使い無能な首脳　ステューピットモンキー</text><text x="0" y="285" font-size="14">喉元過ぎりゃまたも煩悩　ステューピットモンキー</text><text x="0" y="304" font-size="14">閻魔さんヤツらの舌を抜け　ノンキなたわ言　言えないように</text><text x="0" y="323" font-size="14"></text><text x="0" y="342" font-size="14">低能　無能　NO! もう! 放射能! ロマンティックモンキー</text><text x="0" y="361" font-size="14">洗脳　煩悩　もう目を覚まそう　ロマンティックモンキー</text><text x="0" y="380" font-size="14">黙ってばかりじゃ思う壷　祈ってばかりじゃ思う壷</text><text x="0" y="399" font-size="14"></text><text x="0" y="418" font-size="14">ようこそここへ　猿の惑星　砂浜に突き出る東京タワー</text><text x="0" y="437" font-size="14">ようこそここへ　猿の惑星　ぽっかり浮かんだ青い星</text><text x="0" y="456" font-size="14">ウッキッキッキ!!　ウッキッキッキ!!　ウッキッキッキのキ!!</text><text x="0" y="475" font-size="14">ウッキッキッキ!!　ウッキッキッキ!!　ウッキッキッキのキ!!</text><text x="0" y="494" font-size="14"></text><text x="0" y="513" font-size="14">ウッキッキッキ!!　ウッキッキッキ!!　ウッキッキッキのキ!!</text><text x="0" y="532" font-size="14">ウッキッキッキ!!　ウッキッキッキ!!　ウッキッキッキのキ!!</text><rect width="530" height="900" x="0" y="0" fill="white" fill-opacity="0" /></g></svg>