<?xml version="1.0" encoding="UTF-8" standalone="no"?><!DOCTYPE svg PUBLIC "-//W3C//DTD SVG 1.0//EN" "http://www.w3.org/TR/SVG/DTD/svg10.dtd"><svg style="shape-rendering:geometricPrecision;" xml:space="preserve"  xmlns:xlink="http://www.w3.org/1999/xlink" xmlns="http://www.w3.org/2000/svg" preserveAspectRatio="xMidYMid meet" viewBox="0 0 530 900" x="0px" y="0px" width="530px" height="900px"><g font-family="'Hiragino Kaku Gothic ProN W3',Meiryo,sans-serif"><text x="0" y="19" font-size="14">ジャンキーの戯言だよな</text><text x="0" y="38" font-size="14">LOVE &amp; PEACEなんて幻想</text><text x="0" y="57" font-size="14">今日だって道に迷いながら</text><text x="0" y="76" font-size="14">風の中を探している</text><text x="0" y="95" font-size="14"></text><text x="0" y="114" font-size="14">スポンサーが金を出したから</text><text x="0" y="133" font-size="14">FREEDOMは金網の中</text><text x="0" y="152" font-size="14">ハッカーがたどり着いたそのナンバー</text><text x="0" y="171" font-size="14">ミサイルの起動ボタン</text><text x="0" y="190" font-size="14"></text><text x="0" y="209" font-size="14">だから I la Love you, I Love you, la Love you</text><text x="0" y="228" font-size="14">もう一度</text><text x="0" y="247" font-size="14">そう I Love you, I Love you, I Love you,</text><text x="0" y="266" font-size="14">Oh! 何度でも</text><text x="0" y="285" font-size="14">言って　言ってくれ!</text><text x="0" y="304" font-size="14"></text><text x="0" y="323" font-size="14">スピリチュアルに金を出したのに</text><text x="0" y="342" font-size="14">いつ結婚出来るのでしょう?</text><text x="0" y="361" font-size="14">今日だって道に迷いながら</text><text x="0" y="380" font-size="14">そんな夜を彷徨ってる</text><text x="0" y="399" font-size="14"></text><text x="0" y="418" font-size="14">だから I la Love you, I Love you, la Love you</text><text x="0" y="437" font-size="14">もう一度</text><text x="0" y="456" font-size="14">そう I Love you, I Love you, I Love you,</text><text x="0" y="475" font-size="14">Oh! 何度でも</text><text x="0" y="494" font-size="14">イッテ　イッテくれ!　LOVE &amp; PEACE</text><text x="0" y="513" font-size="14"></text><text x="0" y="532" font-size="14">だから I la Love you, I Love you, la Love you</text><text x="0" y="551" font-size="14">もう一度</text><text x="0" y="570" font-size="14">そう I Love you, I Love you, I Love you,</text><text x="0" y="589" font-size="14">Oh! 何度でも</text><text x="0" y="608" font-size="14">言って　言ってくれ!</text><text x="0" y="627" font-size="14">言って　言ってやる!</text><text x="0" y="646" font-size="14"></text><text x="0" y="665" font-size="14">LOVE &amp; PEACE</text><text x="0" y="684" font-size="14">LOVE &amp; PEACE</text><rect width="530" height="900" x="0" y="0" fill="white" fill-opacity="0" /></g></svg>