<?xml version="1.0" encoding="UTF-8" standalone="no"?><!DOCTYPE svg PUBLIC "-//W3C//DTD SVG 1.0//EN" "http://www.w3.org/TR/SVG/DTD/svg10.dtd"><svg style="shape-rendering:geometricPrecision;" xml:space="preserve"  xmlns:xlink="http://www.w3.org/1999/xlink" xmlns="http://www.w3.org/2000/svg" preserveAspectRatio="xMidYMid meet" viewBox="0 0 530 900" x="0px" y="0px" width="530px" height="900px"><g font-family="'Hiragino Kaku Gothic ProN W3',Meiryo,sans-serif"><text x="0" y="19" font-size="14">ジャンケンポンあいこでしょ　泥んこまみれのともだち</text><text x="0" y="38" font-size="14">ファンタグレープはじけた　まぶしい　青い太陽</text><text x="0" y="57" font-size="14">放課後いつもの歩道橋　まぶしいあの子はポニーテール</text><text x="0" y="76" font-size="14">すれ違ったその時に　少し微笑んだような　空に入道雲</text><text x="0" y="95" font-size="14"></text><text x="0" y="114" font-size="14">今だって忘れやしない　暑かったあの日の匂い</text><text x="0" y="133" font-size="14">ずっとずっと　消えたりしない　ボクの胸の日焼け跡</text><text x="0" y="152" font-size="14">Oh Summer Days　Oh Summer Day</text><text x="0" y="171" font-size="14">It's Summer Davs　It's Summer Day</text><text x="0" y="190" font-size="14">蝉の声　Oh Summer Day</text><text x="0" y="209" font-size="14"></text><text x="0" y="228" font-size="14">ジャンケンポンあいこでしょ　負けたらおまえがベース</text><text x="0" y="247" font-size="14">サージェントペッパーのポスター　笑うジョンとポール</text><text x="0" y="266" font-size="14">放課後いつものアジト　床には破れたプレイボーイ</text><text x="0" y="285" font-size="14">調子っぱずれのギターで　嗚らせ　爆音　ロックンロール</text><text x="0" y="304" font-size="14">歌え　叫べ　ロックンロール</text><text x="0" y="323" font-size="14">キミに届いてくれ！</text><text x="0" y="342" font-size="14"></text><text x="0" y="361" font-size="14">今だって忘れやしない　熱かったあの日の想い</text><text x="0" y="380" font-size="14">ずっとずっと　消えたりしない　ボクの胸の日焼け跡</text><text x="0" y="399" font-size="14">Oh Summer Days　Oh Summer Day</text><text x="0" y="418" font-size="14">It's Summer Days　It's Summer Day</text><text x="0" y="437" font-size="14">夕立ち　Oh Summer Day</text><text x="0" y="456" font-size="14"></text><text x="0" y="475" font-size="14">何年会わなくなれば　他人になるともだち</text><text x="0" y="494" font-size="14">ファンタグレープはじけた　まぶしい　青い太陽</text><text x="0" y="513" font-size="14">鳴らせ　爆音　ロックンロール　キミに届け！</text><text x="0" y="532" font-size="14"></text><text x="0" y="551" font-size="14">今だって忘れやしない　泣かせたあの日の匂い</text><text x="0" y="570" font-size="14">ずっとずっと　消えたりしない　キミの胸の傷の跡</text><text x="0" y="589" font-size="14">Oh Summer Days　Oh Summer Day</text><text x="0" y="608" font-size="14">It's Summer Days　It's Summer Day</text><text x="0" y="627" font-size="14">忘れない　Oh Summer Day</text><text x="0" y="646" font-size="14"></text><text x="0" y="665" font-size="14">ジャンケンポンあいこでしょ　今ではみんな後出し</text><text x="0" y="684" font-size="14">サージェントペッパーのポスター　笑うジョン　ポール　ジョージ　リンゴ</text><text x="0" y="703" font-size="14">ミック　ディラン…</text><text x="0" y="722" font-size="14">遊ぼう　遊ぼう　Oh Summer Days</text><text x="0" y="741" font-size="14">遊ぼう　Oh Summer Days</text><text x="0" y="760" font-size="14">遊ぼう</text><text x="0" y="779" font-size="14">あそぼう</text><rect width="530" height="900" x="0" y="0" fill="white" fill-opacity="0" /></g></svg>