<?xml version="1.0" encoding="UTF-8" standalone="no"?><!DOCTYPE svg PUBLIC "-//W3C//DTD SVG 1.0//EN" "http://www.w3.org/TR/SVG/DTD/svg10.dtd"><svg style="shape-rendering:geometricPrecision;" xml:space="preserve"  xmlns:xlink="http://www.w3.org/1999/xlink" xmlns="http://www.w3.org/2000/svg" preserveAspectRatio="xMidYMid meet" viewBox="0 0 530 900" x="0px" y="0px" width="530px" height="900px"><g font-family="'Hiragino Kaku Gothic ProN W3',Meiryo,sans-serif"><text x="0" y="19" font-size="14">I'm a Player　答え合わせは　最後の最後で</text><text x="0" y="38" font-size="14">I'm a Player　思い出よりも　新しい今がいいの</text><text x="0" y="57" font-size="14">泣き出しそうなエンジェル　忙しそうなサタン</text><text x="0" y="76" font-size="14">涙のうしろで儲ける　奴らに気なんか使って</text><text x="0" y="95" font-size="14"></text><text x="0" y="114" font-size="14">I'm looking for Beautiful</text><text x="0" y="133" font-size="14">この頼りない世界の中で</text><text x="0" y="152" font-size="14">私だけの宝物　歩いて手に入れたもの</text><text x="0" y="171" font-size="14">I'm looking for Beautiful　マイスピードで</text><text x="0" y="190" font-size="14">答えなどない　そこにはない　机の上には</text><text x="0" y="209" font-size="14"></text><text x="0" y="228" font-size="14">I'm a Player　友達なんて　ちょっとでいいのよ</text><text x="0" y="247" font-size="14">I'm a Player　愚痴や陰口聞いているヒマなどないわ</text><text x="0" y="266" font-size="14"></text><text x="0" y="285" font-size="14">I'm looking for Beautiful</text><text x="0" y="304" font-size="14">雨の止まない世界の中で</text><text x="0" y="323" font-size="14">私だけの宝物　転んで手に入れたもの</text><text x="0" y="342" font-size="14">I'm looking for Beautiful　マイスピードで</text><text x="0" y="361" font-size="14">傷口なんて　舐めれば直る　それより行きましょ</text><text x="0" y="380" font-size="14"></text><text x="0" y="399" font-size="14">I'm looking for Beautiful</text><text x="0" y="418" font-size="14">つぼみの眠る世界の中で</text><text x="0" y="437" font-size="14">私だけの宝物　時間だけがくれたもの</text><text x="0" y="456" font-size="14">I'm looking for Beautiful　マイスピードで</text><text x="0" y="475" font-size="14">答えなどない　そこにはない　机の上には</text><text x="0" y="494" font-size="14">忙しそうなエンジェル　アクビするサタン　さぁ、なにか食べましょ</text><text x="0" y="513" font-size="14"></text><text x="0" y="532" font-size="14">I'm a Player　答え合わせは　最後の最後で</text><rect width="530" height="900" x="0" y="0" fill="white" fill-opacity="0" /></g></svg>