<?xml version="1.0" encoding="UTF-8" standalone="no"?><!DOCTYPE svg PUBLIC "-//W3C//DTD SVG 1.0//EN" "http://www.w3.org/TR/SVG/DTD/svg10.dtd"><svg style="shape-rendering:geometricPrecision;" xml:space="preserve"  xmlns:xlink="http://www.w3.org/1999/xlink" xmlns="http://www.w3.org/2000/svg" preserveAspectRatio="xMidYMid meet" viewBox="0 0 530 900" x="0px" y="0px" width="530px" height="900px"><g font-family="'Hiragino Kaku Gothic ProN W3',Meiryo,sans-serif"><text x="0" y="19" font-size="14">さよならキャディラック　どこへ消えたんだ　あの頃見てた夢</text><text x="0" y="38" font-size="14">さよならキャディラック　一発当てたって</text><text x="0" y="57" font-size="14">そんなもんじゃもう買えっこない</text><text x="0" y="76" font-size="14"></text><text x="0" y="95" font-size="14">時代遅れのCDやレコードは　シャボン玉みたいに消えた</text><text x="0" y="114" font-size="14">矛盾だらけのダウンロードストリーミング</text><text x="0" y="133" font-size="14">まともに金を払うヤツは笑われる</text><text x="0" y="152" font-size="14"></text><text x="0" y="171" font-size="14">さよならキャディラック　どこへ消えたんだ　あの頃見てた夢</text><text x="0" y="190" font-size="14">さよならキャディラック　一発当てたって</text><text x="0" y="209" font-size="14">そんなもんじゃもう乗れっこない</text><text x="0" y="228" font-size="14"></text><text x="0" y="247" font-size="14">汗もかかずに裏ばっかかいてさ　自分じゃなんも産まない奴ら</text><text x="0" y="266" font-size="14">バカとドアホのパワーゲームなんてさ　地獄に堕ちた後にしてくれ</text><text x="0" y="285" font-size="14"></text><text x="0" y="304" font-size="14">さよならキャディラック　金が欲しけりゃ　ロックンロールなんてやめな</text><text x="0" y="323" font-size="14"></text><text x="0" y="342" font-size="14">あれこれ悩んで　あーだこーだどーだ決めた曲順も</text><text x="0" y="361" font-size="14">バラバラバラバラ売り　ちょっと酔っぱらってんのさ</text><text x="0" y="380" font-size="14">文句くらい言わせろ！</text><text x="0" y="399" font-size="14"></text><text x="0" y="418" font-size="14">時代遅れのオヤジの愚痴さ　聞きたくないヤツは飛ばしな</text><text x="0" y="437" font-size="14">無菌パックのラブソング聞いてさ　となりのブスとよろしくしてな</text><text x="0" y="456" font-size="14"></text><text x="0" y="475" font-size="14">さよならキャディラック　一発当てたって</text><text x="0" y="494" font-size="14">そんなもんじゃもう乗れっこない</text><rect width="530" height="900" x="0" y="0" fill="white" fill-opacity="0" /></g></svg>