<?xml version="1.0" encoding="UTF-8" standalone="no"?><!DOCTYPE svg PUBLIC "-//W3C//DTD SVG 1.0//EN" "http://www.w3.org/TR/SVG/DTD/svg10.dtd"><svg style="shape-rendering:geometricPrecision;" xml:space="preserve"  xmlns:xlink="http://www.w3.org/1999/xlink" xmlns="http://www.w3.org/2000/svg" preserveAspectRatio="xMidYMid meet" viewBox="0 0 530 900" x="0px" y="0px" width="530px" height="900px"><g font-family="'Hiragino Kaku Gothic ProN W3',Meiryo,sans-serif"><text x="0" y="19" font-size="14">別に大したことじゃない</text><text x="0" y="38" font-size="14">そりゃね　敵ばかり見えるけど</text><text x="0" y="57" font-size="14">よく見てごらんよ　あいつもビビってる</text><text x="0" y="76" font-size="14">みんなちょっとはやっぱり不安なんだな</text><text x="0" y="95" font-size="14"></text><text x="0" y="114" font-size="14">キンチョーすることはいいことさ</text><text x="0" y="133" font-size="14">好きなことをやっている証拠</text><text x="0" y="152" font-size="14">チビるくらいの武者震いを隠したら</text><text x="0" y="171" font-size="14">信じた道を突き進むだけ</text><text x="0" y="190" font-size="14"></text><text x="0" y="209" font-size="14">攻めていこーぜ！　守りはゴメンだ</text><text x="0" y="228" font-size="14">叱られるのなんてほんの一瞬のことだよ</text><text x="0" y="247" font-size="14">攻めていこーぜ！　敵を味方に</text><text x="0" y="266" font-size="14">つけちゃうくらいのイキオイで</text><text x="0" y="285" font-size="14"></text><text x="0" y="304" font-size="14">別に大したことじゃない</text><text x="0" y="323" font-size="14">そりゃね失敗はコワイけど</text><text x="0" y="342" font-size="14">命まで取られるわけでもないだろ</text><text x="0" y="361" font-size="14">好きなことは譲っちゃダメさ</text><text x="0" y="380" font-size="14"></text><text x="0" y="399" font-size="14">攻めていこーぜ！　守りはゴメンだ</text><text x="0" y="418" font-size="14">もしうまくいったら　うまいお酒が飲める</text><text x="0" y="437" font-size="14">攻めていこーぜ！　ひとりじゃないさ</text><text x="0" y="456" font-size="14">ほら　うしろ見れば　頼もしい友が</text><text x="0" y="475" font-size="14"></text><text x="0" y="494" font-size="14">落ちついて見える立派な大人は</text><text x="0" y="513" font-size="14">よく見りゃほらただ疲れてるだけさ</text><text x="0" y="532" font-size="14"></text><text x="0" y="551" font-size="14">攻めていこーぜ！　守りはゴメンだ</text><text x="0" y="570" font-size="14">もしうまくいったら　あのコのごほーび待ってる</text><text x="0" y="589" font-size="14">攻めていこーぜ！　世界を味方に</text><text x="0" y="608" font-size="14">つけちゃうくらいのイキオイで</text><text x="0" y="627" font-size="14">ほら　うしろを見れば　頼もしい友が</text><rect width="530" height="900" x="0" y="0" fill="white" fill-opacity="0" /></g></svg>