<?xml version="1.0" encoding="UTF-8" standalone="no"?><!DOCTYPE svg PUBLIC "-//W3C//DTD SVG 1.0//EN" "http://www.w3.org/TR/SVG/DTD/svg10.dtd"><svg style="shape-rendering:geometricPrecision;" xml:space="preserve"  xmlns:xlink="http://www.w3.org/1999/xlink" xmlns="http://www.w3.org/2000/svg" preserveAspectRatio="xMidYMid meet" viewBox="0 0 530 900" x="0px" y="0px" width="530px" height="900px"><g font-family="'Hiragino Kaku Gothic ProN W3',Meiryo,sans-serif"><text x="0" y="19" font-size="14">Oh! Yeah! 行こうぜ! もう準備ならできている</text><text x="0" y="38" font-size="14">ホップ ステップ ウォームアップ OH! NO! その次はジャンプだろ!</text><text x="0" y="57" font-size="14">「変わらないで」なんて 新しいこと望まぬ人よ さよなら</text><text x="0" y="76" font-size="14"></text><text x="0" y="95" font-size="14">Thank You Goodbye Yesterday</text><text x="0" y="114" font-size="14">Good Morning Sunny Day</text><text x="0" y="133" font-size="14"></text><text x="0" y="152" font-size="14">そうさ 飛ぼうぜ! 今日の運勢がビリだって</text><text x="0" y="171" font-size="14">ホップ ステップ チェンジアップ OH! NO! その次はジャンプだろ!</text><text x="0" y="190" font-size="14">あっけないくらいにお日様は 強く思った奴を 照らすのさ</text><text x="0" y="209" font-size="14"></text><text x="0" y="228" font-size="14">Thank You Goodbye Yesterday</text><text x="0" y="247" font-size="14">俺とおまえを乗せた</text><text x="0" y="266" font-size="14">Good Morning Sunny Day</text><text x="0" y="285" font-size="14">トロッコは進むよ</text><text x="0" y="304" font-size="14">Thank You Goodbye Yesterday</text><text x="0" y="323" font-size="14">ブレーキはないのさ</text><text x="0" y="342" font-size="14">Good Morning Sunny Day</text><text x="0" y="361" font-size="14">強い風が吹いても!</text><text x="0" y="380" font-size="14"></text><text x="0" y="399" font-size="14">Thank You Goodbye Yesterday</text><text x="0" y="418" font-size="14">俺とおまえを乗せた</text><text x="0" y="437" font-size="14">Good Morning Sunny Day</text><text x="0" y="456" font-size="14">トロッコは進むよ</text><text x="0" y="475" font-size="14">Thank You Goodbye Yesterday</text><text x="0" y="494" font-size="14">赤い海を越えて</text><text x="0" y="513" font-size="14">Good Morning Sunny Day</text><text x="0" y="532" font-size="14">手を離すな!</text><rect width="530" height="900" x="0" y="0" fill="white" fill-opacity="0" /></g></svg>