<?xml version="1.0" encoding="UTF-8" standalone="no"?><!DOCTYPE svg PUBLIC "-//W3C//DTD SVG 1.0//EN" "http://www.w3.org/TR/SVG/DTD/svg10.dtd"><svg style="shape-rendering:geometricPrecision;" xml:space="preserve"  xmlns:xlink="http://www.w3.org/1999/xlink" xmlns="http://www.w3.org/2000/svg" preserveAspectRatio="xMidYMid meet" viewBox="0 0 530 900" x="0px" y="0px" width="530px" height="900px"><g font-family="'Hiragino Kaku Gothic ProN W3',Meiryo,sans-serif"><text x="0" y="19" font-size="14">自由になりたい</text><text x="0" y="38" font-size="14">くだらない事はもう忘れて</text><text x="0" y="57" font-size="14">自由になりたい</text><text x="0" y="76" font-size="14">ノートもワープロもとっぱらって</text><text x="0" y="95" font-size="14">自由になりたい</text><text x="0" y="114" font-size="14">血のしたたるステーキなんかより</text><text x="0" y="133" font-size="14">自由になりたい</text><text x="0" y="152" font-size="14">明日の事など気にせずに</text><text x="0" y="171" font-size="14">自由になりたい</text><text x="0" y="190" font-size="14">誰かの視線なんか気にしないで</text><text x="0" y="209" font-size="14">自由になりたい</text><text x="0" y="228" font-size="14">自分の観察なんかしないで</text><text x="0" y="247" font-size="14">自由になりたい</text><text x="0" y="266" font-size="14">一生抱えて行くんだろうけど</text><text x="0" y="285" font-size="14">自由になりたい</text><text x="0" y="304" font-size="14">渋滞に巻き込まれることもなく</text><text x="0" y="323" font-size="14">自由になりたい</text><text x="0" y="342" font-size="14">過去なんかに縛られることもなく</text><text x="0" y="361" font-size="14">自由になりたい</text><text x="0" y="380" font-size="14">例え無理だとしても</text><text x="0" y="399" font-size="14">自由になりたい</text><text x="0" y="418" font-size="14">カッコよくなりたい気持ちを放棄せず</text><text x="0" y="437" font-size="14">自由になりたい</text><text x="0" y="456" font-size="14">流行り廃りに惑わされずに</text><text x="0" y="475" font-size="14">自由になりたい</text><text x="0" y="494" font-size="14">誰かの意見に振り回されずに</text><text x="0" y="513" font-size="14">自由になりたい</text><text x="0" y="532" font-size="14">彼女と自然に抱き合いながら</text><text x="0" y="551" font-size="14">自由になりたい</text><text x="0" y="570" font-size="14">携帯電話はだから欲しくない</text><text x="0" y="589" font-size="14">自由になりたい</text><text x="0" y="608" font-size="14">変態だって別にいいじゃない</text><text x="0" y="627" font-size="14">自由になりたい</text><text x="0" y="646" font-size="14">何処へ行くのか分からなくても</text><text x="0" y="665" font-size="14">自由になりたい</text><text x="0" y="684" font-size="14">めんどくさい事は放っておいて</text><text x="0" y="703" font-size="14">自由になりたい</text><text x="0" y="722" font-size="14">もう一人の僕と仲良くしながら</text><text x="0" y="741" font-size="14">自由になりたい</text><text x="0" y="760" font-size="14">生きてく事など死ぬまでの暇つぶし</text><text x="0" y="779" font-size="14"></text><text x="0" y="798" font-size="14">I Wanna be Free ジユウ ニ ナリタイ</text><text x="0" y="817" font-size="14">I Wanna be Free 何処へ行くのか分からないけど</text><text x="0" y="836" font-size="14">I Wanna be Free ジユウ ニ ナリタイ</text><text x="0" y="855" font-size="14">I Wanna be Free 君よ君のままで</text><text x="0" y="874" font-size="14"></text><text x="0" y="893" font-size="14">I Wanna be Free I Wanna be Free</text><text x="0" y="912" font-size="14">I Wanna be Free 昨日の事などもう忘れて</text><text x="0" y="931" font-size="14">I Wanna be Free 生きていく事なんて</text><text x="0" y="950" font-size="14">I Wanna be Free 死ぬまでの暇つぶしさ</text><rect width="530" height="900" x="0" y="0" fill="white" fill-opacity="0" /></g></svg>