<?xml version="1.0" encoding="UTF-8" standalone="no"?><!DOCTYPE svg PUBLIC "-//W3C//DTD SVG 1.0//EN" "http://www.w3.org/TR/SVG/DTD/svg10.dtd"><svg style="shape-rendering:geometricPrecision;" xml:space="preserve"  xmlns:xlink="http://www.w3.org/1999/xlink" xmlns="http://www.w3.org/2000/svg" preserveAspectRatio="xMidYMid meet" viewBox="0 0 530 900" x="0px" y="0px" width="530px" height="900px"><g font-family="'Hiragino Kaku Gothic ProN W3',Meiryo,sans-serif"><text x="0" y="19" font-size="14">もしも君が出て行って　もう戻らなかったら</text><text x="0" y="38" font-size="14">僕はいったい　何をするだろう</text><text x="0" y="57" font-size="14">たぶん気が変になって　夜をさまよって</text><text x="0" y="76" font-size="14">死ぬ事も出来ないで　泣くんだろう</text><text x="0" y="95" font-size="14"></text><text x="0" y="114" font-size="14">そんな想像なんて　悲しすぎるから</text><text x="0" y="133" font-size="14">熱いコーヒーをいれて　目を覚ます</text><text x="0" y="152" font-size="14">だけどそのイメージが　歌になりそうだから</text><text x="0" y="171" font-size="14">デタラメなブルースを　口ずさむ</text><text x="0" y="190" font-size="14"></text><text x="0" y="209" font-size="14">こんな事ばかりしてると</text><text x="0" y="228" font-size="14">いつか　いつか　ほんとの現実になっちまうぜ</text><text x="0" y="247" font-size="14"></text><text x="0" y="266" font-size="14">Bad time blues is on me</text><text x="0" y="285" font-size="14">Bad time blues is on you</text><text x="0" y="304" font-size="14">Bad time blues　Bad time blues　Bad time blues</text><text x="0" y="323" font-size="14"></text><text x="0" y="342" font-size="14">赤い月が出ている　夕暮れの空に</text><text x="0" y="361" font-size="14">かわいい子犬を抱いた 老婆が言う</text><text x="0" y="380" font-size="14">「何かしら　嫌ね　少し　気味が悪いわね」</text><text x="0" y="399" font-size="14">遠くでは　サイレンが　うなってる</text><text x="0" y="418" font-size="14"></text><text x="0" y="437" font-size="14">僕は無理矢理に答えた</text><text x="0" y="456" font-size="14">「きっと何処かの家に子供が生まれたんでしょう」</text><text x="0" y="475" font-size="14"></text><text x="0" y="494" font-size="14">Bad time blues is on me</text><text x="0" y="513" font-size="14">Bad time blues is on you</text><text x="0" y="532" font-size="14">Bad time blues　Bad time blues　Bad time blues</text><text x="0" y="551" font-size="14"></text><text x="0" y="570" font-size="14">こんな事ばかりしてると</text><text x="0" y="589" font-size="14">いつか　いつか　ほんとの現実になっちまうぜ</text><text x="0" y="608" font-size="14"></text><text x="0" y="627" font-size="14">Bad time blues is on me</text><text x="0" y="646" font-size="14">Bad time blues is on you</text><text x="0" y="665" font-size="14">Bad time blues　Bad time blues　Bad time blues</text><text x="0" y="684" font-size="14"></text><text x="0" y="703" font-size="14">Bad time blues　Bad time blues　Bad time blues……</text><rect width="530" height="900" x="0" y="0" fill="white" fill-opacity="0" /></g></svg>