<?xml version="1.0" encoding="UTF-8" standalone="no"?><!DOCTYPE svg PUBLIC "-//W3C//DTD SVG 1.0//EN" "http://www.w3.org/TR/SVG/DTD/svg10.dtd"><svg style="shape-rendering:geometricPrecision;" xml:space="preserve"  xmlns:xlink="http://www.w3.org/1999/xlink" xmlns="http://www.w3.org/2000/svg" preserveAspectRatio="xMidYMid meet" viewBox="0 0 530 900" x="0px" y="0px" width="530px" height="900px"><g font-family="'Hiragino Kaku Gothic ProN W3',Meiryo,sans-serif"><text x="0" y="19" font-size="14">一人じゃ切符も買えない</text><text x="0" y="38" font-size="14">社会生活不適合者</text><text x="0" y="57" font-size="14">自分の住所もよくわからない</text><text x="0" y="76" font-size="14">社会生活不適合者</text><text x="0" y="95" font-size="14">アレをやってりゃ気分は最高</text><text x="0" y="114" font-size="14">社会生活不適合者</text><text x="0" y="133" font-size="14">誰より自分がカワイイのさ</text><text x="0" y="152" font-size="14">社会生活不適合者</text><text x="0" y="171" font-size="14"></text><text x="0" y="190" font-size="14">死んだ方が世の中のためさ</text><text x="0" y="209" font-size="14">でもそんな予定など死んでもない</text><text x="0" y="228" font-size="14">文句の数だけは人一倍</text><text x="0" y="247" font-size="14">おまえの話など右から左</text><text x="0" y="266" font-size="14"></text><text x="0" y="285" font-size="14">楽しくないから今日はやめた</text><text x="0" y="304" font-size="14">社会生活不適合者</text><text x="0" y="323" font-size="14">面白くないから今日はやめだ</text><text x="0" y="342" font-size="14">社会生活不適合者</text><text x="0" y="361" font-size="14">何様　俺様　そこのけ　どけ</text><text x="0" y="380" font-size="14">社会生活不適合者</text><text x="0" y="399" font-size="14">一人じゃ時間も守れない</text><text x="0" y="418" font-size="14">社会生活不適合者</text><text x="0" y="437" font-size="14"></text><text x="0" y="456" font-size="14">「反省」なんか俺の辞書にない</text><text x="0" y="475" font-size="14">ふさぎこむ理由は何処にもない</text><text x="0" y="494" font-size="14">勘違いだけは人一倍</text><text x="0" y="513" font-size="14">笑って生きるのさ　それの何が悪い！</text><text x="0" y="532" font-size="14"></text><text x="0" y="551" font-size="14">何をそんなに怒っているの？</text><text x="0" y="570" font-size="14">社会生活不適合者</text><text x="0" y="589" font-size="14">キレイなものに出会いたいだけ</text><text x="0" y="608" font-size="14">社会生活不適合者</text><text x="0" y="627" font-size="14"></text><text x="0" y="646" font-size="14">俺は世の中が嫌いじゃない</text><text x="0" y="665" font-size="14">ふさぎこむ理由は何処にもない</text><text x="0" y="684" font-size="14">頭の中の夢こそ現実</text><text x="0" y="703" font-size="14">笑って生きるのさ　それの何が悪い！</text><rect width="530" height="900" x="0" y="0" fill="white" fill-opacity="0" /></g></svg>