<?xml version="1.0" encoding="UTF-8" standalone="no"?><!DOCTYPE svg PUBLIC "-//W3C//DTD SVG 1.0//EN" "http://www.w3.org/TR/SVG/DTD/svg10.dtd"><svg style="shape-rendering:geometricPrecision;" xml:space="preserve"  xmlns:xlink="http://www.w3.org/1999/xlink" xmlns="http://www.w3.org/2000/svg" preserveAspectRatio="xMidYMid meet" viewBox="0 0 530 900" x="0px" y="0px" width="530px" height="900px"><g font-family="'Hiragino Kaku Gothic ProN W3',Meiryo,sans-serif"><text x="0" y="19" font-size="14">My Lonely Heart Walking in the Rain</text><text x="0" y="38" font-size="14">Lonely Heart Walking in the Rain Rain Rain</text><text x="0" y="57" font-size="14">いつ止むの?</text><text x="0" y="76" font-size="14"></text><text x="0" y="95" font-size="14">揺れる唇にKISS　滑り込む夜のとばり</text><text x="0" y="114" font-size="14">湿り始めるシーツ　遠く離れてく意識</text><text x="0" y="133" font-size="14">“グッ”と背中に爪を立てればふたりは　White White White</text><text x="0" y="152" font-size="14">思い出あの夜「もう離さないで」と言ったはずじゃない…</text><text x="0" y="171" font-size="14"></text><text x="0" y="190" font-size="14">ひとり目覚める朝　くずれだしそな　Cloudy Sky</text><text x="0" y="209" font-size="14">床に転がってるゲージ切れたままのギター</text><text x="0" y="228" font-size="14">泣き始めてる空　どしゃぶりで頼むよ　Rain Rain Rain</text><text x="0" y="247" font-size="14">この街じゃ俺ひとりいなくなったって</text><text x="0" y="266" font-size="14">誰も気付きゃしないじゃない</text><text x="0" y="285" font-size="14"></text><text x="0" y="304" font-size="14">時よ早く流れて　ねぇお願いだよ　Please Please Please</text><text x="0" y="323" font-size="14">いくつさよならすれば　雨は上がるのさ</text><text x="0" y="342" font-size="14">Good By My Sweet Memory</text><text x="0" y="361" font-size="14"></text><text x="0" y="380" font-size="14">My Lonely Heart Walking in the Rain</text><text x="0" y="399" font-size="14">Lonely Heart Walking in the Rain Rain Rain</text><text x="0" y="418" font-size="14">いつ止むの?</text><text x="0" y="437" font-size="14"></text><text x="0" y="456" font-size="14">My Lonely Heart Walking in the Rain</text><text x="0" y="475" font-size="14">Lonely Heart Walking in the Rain Rain Rain</text><text x="0" y="494" font-size="14">まだ降るの?</text><text x="0" y="513" font-size="14"></text><text x="0" y="532" font-size="14">My Lonely Heart Walking in the Rain</text><text x="0" y="551" font-size="14">Lonely Heart Walking in the Rain Rain Rain</text><text x="0" y="570" font-size="14">Rain Rain Rain…</text><rect width="530" height="900" x="0" y="0" fill="white" fill-opacity="0" /></g></svg>