<?xml version="1.0" encoding="UTF-8" standalone="no"?><!DOCTYPE svg PUBLIC "-//W3C//DTD SVG 1.0//EN" "http://www.w3.org/TR/SVG/DTD/svg10.dtd"><svg style="shape-rendering:geometricPrecision;" xml:space="preserve"  xmlns:xlink="http://www.w3.org/1999/xlink" xmlns="http://www.w3.org/2000/svg" preserveAspectRatio="xMidYMid meet" viewBox="0 0 530 900" x="0px" y="0px" width="530px" height="900px"><g font-family="'Hiragino Kaku Gothic ProN W3',Meiryo,sans-serif"><text x="0" y="19" font-size="14">二十一歳の彼女は今日も歌を歌ってる</text><text x="0" y="38" font-size="14">It's・Only・My・Time</text><text x="0" y="57" font-size="14">こんがらがってた頭の中を波がさらっていく</text><text x="0" y="76" font-size="14">It's・Only・My・Time</text><text x="0" y="95" font-size="14"></text><text x="0" y="114" font-size="14">もうあんな奴のことなんて　忘れようって思った時</text><text x="0" y="133" font-size="14">雨の向こうに　空の面影が見えた</text><text x="0" y="152" font-size="14"></text><text x="0" y="171" font-size="14">二十二歳の彼女は今日も夢を見ている</text><text x="0" y="190" font-size="14">It's・Only・My・Time</text><text x="0" y="209" font-size="14">きっとあの街へ行けばすべてが変わるはず</text><text x="0" y="228" font-size="14">It's・Only・My・Time</text><text x="0" y="247" font-size="14"></text><text x="0" y="266" font-size="14">いつの間にか身につけた作り笑いをした時</text><text x="0" y="285" font-size="14">あの日見かけたアゲハが空に消えてった</text><text x="0" y="304" font-size="14"></text><text x="0" y="323" font-size="14">Baby I like you</text><text x="0" y="342" font-size="14">もう会う事はないけれど</text><text x="0" y="361" font-size="14">Baby I like you</text><text x="0" y="380" font-size="14">君は君　それをどうか忘れないで</text><text x="0" y="399" font-size="14"></text><text x="0" y="418" font-size="14">二十六歳の彼女は今日も月に尋ねる</text><text x="0" y="437" font-size="14">It's・Only・My・Time</text><text x="0" y="456" font-size="14">「何か忘れてる気がするんだけど　あなた知ってる？」</text><text x="0" y="475" font-size="14">It's・Only・My・Time</text><text x="0" y="494" font-size="14"></text><text x="0" y="513" font-size="14">また吸い始めたタバコに火をつけようとした時</text><text x="0" y="532" font-size="14">水に沈めたピアノが空に顔を出す</text><text x="0" y="551" font-size="14"></text><text x="0" y="570" font-size="14">三十二歳の彼女は今日も歌を歌ってる</text><text x="0" y="589" font-size="14">It's・Only・My・Time</text><text x="0" y="608" font-size="14">こんがらがってた頭の中の霧が晴れてく</text><text x="0" y="627" font-size="14">It's・Only・My・Time</text><text x="0" y="646" font-size="14"></text><text x="0" y="665" font-size="14">もう許してあげよう　月を見上げた時</text><text x="0" y="684" font-size="14">あの日見かけたアゲハが肩に舞い降りる</text><rect width="530" height="900" x="0" y="0" fill="white" fill-opacity="0" /></g></svg>