<?xml version="1.0" encoding="UTF-8" standalone="no"?><!DOCTYPE svg PUBLIC "-//W3C//DTD SVG 1.0//EN" "http://www.w3.org/TR/SVG/DTD/svg10.dtd"><svg style="shape-rendering:geometricPrecision;" xml:space="preserve"  xmlns:xlink="http://www.w3.org/1999/xlink" xmlns="http://www.w3.org/2000/svg" preserveAspectRatio="xMidYMid meet" viewBox="0 0 530 900" x="0px" y="0px" width="530px" height="900px"><g font-family="'Hiragino Kaku Gothic ProN W3',Meiryo,sans-serif"><text x="0" y="19" font-size="14">Let's Swing　俺のドラムは最高だぜ！</text><text x="0" y="38" font-size="14">Let's Swing　おまえの胸を揺らしたい！</text><text x="0" y="57" font-size="14">Let's Swing　さあベードラに跨がりなよ</text><text x="0" y="76" font-size="14">Let's Swing　虚ろな瞳たまらないぜ！</text><text x="0" y="95" font-size="14"></text><text x="0" y="114" font-size="14">Da! Da! Da! Dan!!</text><text x="0" y="133" font-size="14">Da! Da! Da! Dan!!</text><text x="0" y="152" font-size="14"></text><text x="0" y="171" font-size="14">Let's Swing　俺のベースは最高だぜ！</text><text x="0" y="190" font-size="14">Let's Swing　おまえの腰をくねらせたい！</text><text x="0" y="209" font-size="14">Let's Swing　ベースアンプに座りなよ</text><text x="0" y="228" font-size="14">Let's Swing　重低音で湿らせて！</text><text x="0" y="247" font-size="14"></text><text x="0" y="266" font-size="14">Boo! Boo! Boo! Boon!!</text><text x="0" y="285" font-size="14">Boo! Boo! Boo! Boon!!</text><text x="0" y="304" font-size="14"></text><text x="0" y="323" font-size="14">Let's Swing　俺のギターは最高だぜ！</text><text x="0" y="342" font-size="14">Let's Swing　おまえの頭狂わせたい！</text><text x="0" y="361" font-size="14">Let's Swing　そんなこと忘れさせてやるぜ！</text><text x="0" y="380" font-size="14">Let's Swing　もっと奥まで突き刺したい！</text><text x="0" y="399" font-size="14"></text><text x="0" y="418" font-size="14">Jya! Jya! Jya! Jyaaan!!</text><text x="0" y="437" font-size="14">Jya! Jya! Jya! Jyaaan!!</text><text x="0" y="456" font-size="14"></text><text x="0" y="475" font-size="14">Let's Swing　おまえの体最高だぜ！</text><text x="0" y="494" font-size="14">Let's Swing　ピンクの丘にあふれる蜜</text><text x="0" y="513" font-size="14">Let's Swing　俺だけが知ってるタトゥ</text><text x="0" y="532" font-size="14">Let's Swing　おまえの中で殺してくれ！</text><rect width="530" height="900" x="0" y="0" fill="white" fill-opacity="0" /></g></svg>