<?xml version="1.0" encoding="UTF-8" standalone="no"?><!DOCTYPE svg PUBLIC "-//W3C//DTD SVG 1.0//EN" "http://www.w3.org/TR/SVG/DTD/svg10.dtd"><svg style="shape-rendering:geometricPrecision;" xml:space="preserve"  xmlns:xlink="http://www.w3.org/1999/xlink" xmlns="http://www.w3.org/2000/svg" preserveAspectRatio="xMidYMid meet" viewBox="0 0 530 900" x="0px" y="0px" width="530px" height="900px"><g font-family="'Hiragino Kaku Gothic ProN W3',Meiryo,sans-serif"><text x="0" y="19" font-size="14">バカにすんなよ！　バカにすんなよ！</text><text x="0" y="38" font-size="14"></text><text x="0" y="57" font-size="14">58年レスポール　今じゃなんと五千万円！</text><text x="0" y="76" font-size="14">投資目的で買いあさる　IT長者は飾るだけ</text><text x="0" y="95" font-size="14"></text><text x="0" y="114" font-size="14">アタシは雑用係じゃねー　オマエの秘書でもねー</text><text x="0" y="133" font-size="14">給料上げろよケチ社長　自分でやりな！</text><text x="0" y="152" font-size="14"></text><text x="0" y="171" font-size="14">CDが売れねー　配信で済まそう</text><text x="0" y="190" font-size="14">音質なんかはほっとけ　どうせ誰にもわかりゃしねー</text><text x="0" y="209" font-size="14"></text><text x="0" y="228" font-size="14">CDはいらねー　邪魔になるだけ</text><text x="0" y="247" font-size="14">泥棒サイトへ波乗り　クリック！　ダウンロード</text><text x="0" y="266" font-size="14"></text><text x="0" y="285" font-size="14">バカにすんなよ！　バカにすんなよ！</text><text x="0" y="304" font-size="14"></text><text x="0" y="323" font-size="14">前厄　本厄　後厄　七五三　冠婚葬祭</text><text x="0" y="342" font-size="14">税金免除　おかげで神主メルセデス</text><text x="0" y="361" font-size="14"></text><text x="0" y="380" font-size="14">その機種はもう古い　それには対応してません</text><text x="0" y="399" font-size="14">修理するにも　もうその部品はございません</text><text x="0" y="418" font-size="14"></text><text x="0" y="437" font-size="14">バカにすんなよ！　バカにすんなよ！</text><text x="0" y="456" font-size="14"></text><text x="0" y="475" font-size="14">マスコミが悪い　テレビが言ってる</text><text x="0" y="494" font-size="14">いや　いや…　おまえがそうだろ！</text><text x="0" y="513" font-size="14"></text><text x="0" y="532" font-size="14">電車はダメ　飛行機もダメ　タクシーもダメ　レストランもダメ</text><text x="0" y="551" font-size="14">売ってるけどダメ　タバコは家で吸いましょう</text><text x="0" y="570" font-size="14"></text><text x="0" y="589" font-size="14">徴収は義務です　支払いはそのうちに…</text><text x="0" y="608" font-size="14">さあ　皆さんとご一緒に　美しい国！</text><text x="0" y="627" font-size="14"></text><text x="0" y="646" font-size="14">バカにすんなよ！　バカにすんなよ！</text><text x="0" y="665" font-size="14">バカにすんなよ！　バカにすんなよ！</text><rect width="530" height="900" x="0" y="0" fill="white" fill-opacity="0" /></g></svg>