<?xml version="1.0" encoding="UTF-8" standalone="no"?><!DOCTYPE svg PUBLIC "-//W3C//DTD SVG 1.0//EN" "http://www.w3.org/TR/SVG/DTD/svg10.dtd"><svg style="shape-rendering:geometricPrecision;" xml:space="preserve"  xmlns:xlink="http://www.w3.org/1999/xlink" xmlns="http://www.w3.org/2000/svg" preserveAspectRatio="xMidYMid meet" viewBox="0 0 530 900" x="0px" y="0px" width="530px" height="900px"><g font-family="'Hiragino Kaku Gothic ProN W3',Meiryo,sans-serif"><text x="0" y="19" font-size="14">哀しみのそばで</text><text x="0" y="38" font-size="14">ネコがあくびをしてる</text><text x="0" y="57" font-size="14">幸せはいつも</text><text x="0" y="76" font-size="14">退屈とワンセット</text><text x="0" y="95" font-size="14"></text><text x="0" y="114" font-size="14">覚悟を決めたら</text><text x="0" y="133" font-size="14">虹を渡っていこう</text><text x="0" y="152" font-size="14">例え今それが</text><text x="0" y="171" font-size="14">白黒の虹だとしても</text><text x="0" y="190" font-size="14"></text><text x="0" y="209" font-size="14">渡り切ろうぜBaby</text><text x="0" y="228" font-size="14">ダメでもともとBaby</text><text x="0" y="247" font-size="14">どうせ迷路なら　笑って行こうぜ</text><text x="0" y="266" font-size="14">きみとギターとネコと</text><text x="0" y="285" font-size="14"></text><text x="0" y="304" font-size="14">涙のベッドで</text><text x="0" y="323" font-size="14">ネコが毛布に絡む</text><text x="0" y="342" font-size="14">情熱の夏も</text><text x="0" y="361" font-size="14">コートが欲しくなっていた</text><text x="0" y="380" font-size="14"></text><text x="0" y="399" font-size="14">踊り切ろうぜBaby</text><text x="0" y="418" font-size="14">指を鳴らしてBaby</text><text x="0" y="437" font-size="14">白黒の虹も　振り向けば</text><text x="0" y="456" font-size="14">赤や、水色、黄色…</text><text x="0" y="475" font-size="14"></text><text x="0" y="494" font-size="14">渡り切ろうぜBaby</text><text x="0" y="513" font-size="14">ダメでもともとBaby</text><text x="0" y="532" font-size="14">どうせ迷路だぜ　笑うしかないぜ</text><text x="0" y="551" font-size="14">きみとギターとネコと</text><text x="0" y="570" font-size="14"></text><text x="0" y="589" font-size="14">犬もカラスもおいで</text><text x="0" y="608" font-size="14">紫、オレンジ、金色…</text><rect width="530" height="900" x="0" y="0" fill="white" fill-opacity="0" /></g></svg>