<?xml version="1.0" encoding="UTF-8" standalone="no"?><!DOCTYPE svg PUBLIC "-//W3C//DTD SVG 1.0//EN" "http://www.w3.org/TR/SVG/DTD/svg10.dtd"><svg style="shape-rendering:geometricPrecision;" xml:space="preserve"  xmlns:xlink="http://www.w3.org/1999/xlink" xmlns="http://www.w3.org/2000/svg" preserveAspectRatio="xMidYMid meet" viewBox="0 0 530 900" x="0px" y="0px" width="530px" height="900px"><g font-family="'Hiragino Kaku Gothic ProN W3',Meiryo,sans-serif"><text x="0" y="19" font-size="14">チョコをなめるボクサー　最後に泣いたのは夕べの夜</text><text x="0" y="38" font-size="14">裏切られた気になってたけれど　すべてはただの誤解</text><text x="0" y="57" font-size="14">受け入れようこの現実を　ウナナナを語るヒロインのように</text><text x="0" y="76" font-size="14">泣いてる場合じゃないでしょう　泣いてるだけじゃ損ばかり</text><text x="0" y="95" font-size="14">ゆうゆうと流れる時間の中で　あなたはそこで何を知る</text><text x="0" y="114" font-size="14"></text><text x="0" y="133" font-size="14">皆さん御存知か知りませんが　私はテレビが苦手です</text><text x="0" y="152" font-size="14">ドキュメンタリーなんて信じない　カメラはそこで回ってるんだぜ</text><text x="0" y="171" font-size="14">受け入れようこの現実を　ウナナナを語るヒロインのように</text><text x="0" y="190" font-size="14">ゆうゆうと流れる時間の中で　風を切って北へ走れ！</text><text x="0" y="209" font-size="14">照れてる場合じゃないでしょう　照れてるだけじゃ始まらない</text><text x="0" y="228" font-size="14">君と行こう　君と行こう</text><text x="0" y="247" font-size="14"></text><text x="0" y="266" font-size="14">Yeah Yeah　ウナナナナナナナナ</text><text x="0" y="285" font-size="14">Yeah Yeah　ウナナナナナナナナ</text><text x="0" y="304" font-size="14">素直じゃないあなたはいつも　心と逆のことをする</text><text x="0" y="323" font-size="14">えぐった自己もいいけれど　そろそろ自分を大切に</text><text x="0" y="342" font-size="14"></text><text x="0" y="361" font-size="14">君と行こう　君と行こう</text><text x="0" y="380" font-size="14">Yeah Yeah　ウナナナナナナナナ</text><text x="0" y="399" font-size="14">Yeah Yeah　ウナナナナナナナナ</text><text x="0" y="418" font-size="14">照れてる場合じゃないでしょう　照れてるだけじゃ始まらない</text><text x="0" y="437" font-size="14">泣いてる場合じゃないでしょう　泣いてるだけじゃ損ばかり</text><text x="0" y="456" font-size="14"></text><text x="0" y="475" font-size="14">Yeah Yeah　ウナナナナナナナナ</text><text x="0" y="494" font-size="14">Yeah Yeah　ウナナナナナナナナ</text><rect width="530" height="900" x="0" y="0" fill="white" fill-opacity="0" /></g></svg>