<?xml version="1.0" encoding="UTF-8" standalone="no"?><!DOCTYPE svg PUBLIC "-//W3C//DTD SVG 1.0//EN" "http://www.w3.org/TR/SVG/DTD/svg10.dtd"><svg style="shape-rendering:geometricPrecision;" xml:space="preserve"  xmlns:xlink="http://www.w3.org/1999/xlink" xmlns="http://www.w3.org/2000/svg" preserveAspectRatio="xMidYMid meet" viewBox="0 0 530 900" x="0px" y="0px" width="530px" height="900px"><g font-family="'Hiragino Kaku Gothic ProN W3',Meiryo,sans-serif"><text x="0" y="19" font-size="14">今歩いているこの道がいつか懐かしくなればいい</text><text x="0" y="38" font-size="14">今歩いているこの道はいつか懐かしくなるだろう</text><text x="0" y="57" font-size="14">その時は是非君が隣に　その時も是非君の隣に</text><text x="0" y="76" font-size="14">とても嬉しいお願いします　僕は嬉しいどうかよろしく</text><text x="0" y="95" font-size="14"></text><text x="0" y="114" font-size="14">幸福な朝食　退屈な夕食　後悔の数　事は成り行き</text><text x="0" y="133" font-size="14">受け売りの知識　正体見たり　押し殺した声　裸を見せ合ったり</text><text x="0" y="152" font-size="14">最初は直感　試してみる価値　大成と犠牲　予定通り予定外</text><text x="0" y="171" font-size="14">僕は君でも　君は僕じゃない　君は僕でも　僕は君じゃない</text><text x="0" y="190" font-size="14"></text><text x="0" y="209" font-size="14">忘れてく感覚　遠ざかる記憶　将来の希望　忘れたい過去</text><text x="0" y="228" font-size="14">しわくちゃの顔　しわがれた声　オープンG　カッコいいギター　足蹴り一発</text><text x="0" y="247" font-size="14">ズレてる感覚　エンターテイナー　ダサいはずのカポタスト　優しそうな目</text><text x="0" y="266" font-size="14">ドクロの指輪　悪いのはどいつだ！　すべての答えは　あのシワの中</text><text x="0" y="285" font-size="14"></text><text x="0" y="304" font-size="14">借金返済　　印税収入　フェンダー・ギブソン　オモチャじゃねぇんだ</text><text x="0" y="323" font-size="14">知らない同士　体制と犠牲　変態行為　ロックンロール</text><text x="0" y="342" font-size="14">島国社会　大陸社会　ライバル意識　劣等感</text><text x="0" y="361" font-size="14">どうも御無沙汰　おやすみまたね　それじゃまたね　そのうちまたね</text><text x="0" y="380" font-size="14">今歩いているこの道は　いつか懐かしく　なるだろう</text><text x="0" y="399" font-size="14">今歩いているこの道が　いつか懐かしく　なればいい</text><text x="0" y="418" font-size="14">偶然と必然　キャッチする努力　丈夫な肉体　シワの足りない脳ミソひとつ</text><text x="0" y="437" font-size="14"></text><text x="0" y="456" font-size="14">幸福な朝食　退屈な夕食　後悔の数　数限りなく</text><text x="0" y="475" font-size="14">どうも御無沙汰　おやすみまたね　それじゃまたね　そのうちまたね</text><text x="0" y="494" font-size="14"></text><text x="0" y="513" font-size="14">エピソード探し　毎日の宿命　僕が誰であろうと　君には関係ない</text><text x="0" y="532" font-size="14">立派なまがいもの　本当は偽物　君が誰であろうと　僕には興味ない</text><text x="0" y="551" font-size="14">トレモノの音　ドブロの音　あの人の声　優しい音</text><text x="0" y="570" font-size="14">探してる人　探されてる人　　このままでは　このままです</text><text x="0" y="589" font-size="14">でもそのままが　一番かもよ</text><text x="0" y="608" font-size="14">空に太陽　大安吉日　今が引き時　僕は気まぐれ</text><text x="0" y="627" font-size="14">月は満月　事は成り行き　人はまばらで　僕は気まぐれ</text><text x="0" y="646" font-size="14">肉体関係　恋愛関係　もうわからない　責任者出てこい！</text><text x="0" y="665" font-size="14">リモコン壊れた　６弦切れた　おなかが空いた</text><text x="0" y="684" font-size="14">すべての答えは　あのシワの中</text><text x="0" y="703" font-size="14"></text><text x="0" y="722" font-size="14">借金返済　　印税収入　フェンダー・ギブソン　オモチャじゃねぇんだ</text><text x="0" y="741" font-size="14">知らない同士　体制と犠牲　変態行為　ロックンロール</text><text x="0" y="760" font-size="14">島国社会　大陸社会　ライバル意識　劣等感</text><text x="0" y="779" font-size="14">おはよう　おやすみ　こんにちわ　いいだろ　イヤイヤ　さようなら</text><text x="0" y="798" font-size="14">今歩いているこの道はいつか懐かしくなるだろう</text><text x="0" y="817" font-size="14">今歩いているこの道がいつか懐かしくなればいい</text><text x="0" y="836" font-size="14">今歩いているこの道はいつか懐かしくなるだろう</text><text x="0" y="855" font-size="14">今歩いているこの道がいつか懐かしくなるはずだ</text><rect width="530" height="900" x="0" y="0" fill="white" fill-opacity="0" /></g></svg>