<?xml version="1.0" encoding="UTF-8" standalone="no"?><!DOCTYPE svg PUBLIC "-//W3C//DTD SVG 1.0//EN" "http://www.w3.org/TR/SVG/DTD/svg10.dtd"><svg style="shape-rendering:geometricPrecision;" xml:space="preserve"  xmlns:xlink="http://www.w3.org/1999/xlink" xmlns="http://www.w3.org/2000/svg" preserveAspectRatio="xMidYMid meet" viewBox="0 0 530 900" x="0px" y="0px" width="530px" height="900px"><g font-family="'Hiragino Kaku Gothic ProN W3',Meiryo,sans-serif"><text x="0" y="19" font-size="14">ある晴れた日に　ぼくは見たよ</text><text x="0" y="38" font-size="14">オレンジ色に光る宇宙船を</text><text x="0" y="57" font-size="14">ベランダに降りてきて</text><text x="0" y="76" font-size="14">聞いた事のない音楽で　ぼくに言った</text><text x="0" y="95" font-size="14"></text><text x="0" y="114" font-size="14">この星は　I Love Me　誰も皆　I Love Me</text><text x="0" y="133" font-size="14">潜めてる　I Love Me　君もまだ　I Love Me</text><text x="0" y="152" font-size="14">知ってるよ　I Love Me 哀しみの　I Love Me</text><text x="0" y="171" font-size="14">誰よりも I Love Me その次が　I Love You</text><text x="0" y="190" font-size="14"></text><text x="0" y="209" font-size="14">ドアが開いて　見つめあったよ</text><text x="0" y="228" font-size="14">白く小さな羽根が綺麗</text><text x="0" y="247" font-size="14">ひらひらと肩に乗り</text><text x="0" y="266" font-size="14">見た事もない楽器で　ぼくに言った</text><text x="0" y="285" font-size="14"></text><text x="0" y="304" font-size="14">それだけじゃ　I Love Me　しなやかに　I Love Me</text><text x="0" y="323" font-size="14">今日もまた　I Love Me　哀しみの　I Love Me</text><text x="0" y="342" font-size="14">誰も皆　I Love Me　隠してる　I Love Me</text><text x="0" y="361" font-size="14">そしてまた　I Love Me　それよりも　I Love You</text><text x="0" y="380" font-size="14"></text><text x="0" y="399" font-size="14">夕暮れが降りてきて　気がつけば西の空　消えていった…</text><text x="0" y="418" font-size="14"></text><text x="0" y="437" font-size="14">この星は　I Love Me　誰も皆　I Love Me</text><text x="0" y="456" font-size="14">潜めてる　I Love Me　君もまだ　I Love Me</text><text x="0" y="475" font-size="14">知ってるよ　I Love Me　哀しみの　I Love Me</text><text x="0" y="494" font-size="14">誰よりも　I Love Me　伝えてる？I Love You</text><text x="0" y="513" font-size="14"></text><text x="0" y="532" font-size="14">それだけじゃ　I Love Me　しなやかに　I Love Me</text><text x="0" y="551" font-size="14">日が昇り　I Love Me　日が沈み　I Love Me</text><text x="0" y="570" font-size="14">退屈な　I Love Me　邪な　I Love Me</text><text x="0" y="589" font-size="14">そしてまた　I Love Me　それよりも　I Love You</text><rect width="530" height="900" x="0" y="0" fill="white" fill-opacity="0" /></g></svg>