<?xml version="1.0" encoding="UTF-8" standalone="no"?><!DOCTYPE svg PUBLIC "-//W3C//DTD SVG 1.0//EN" "http://www.w3.org/TR/SVG/DTD/svg10.dtd"><svg style="shape-rendering:geometricPrecision;" xml:space="preserve"  xmlns:xlink="http://www.w3.org/1999/xlink" xmlns="http://www.w3.org/2000/svg" preserveAspectRatio="xMidYMid meet" viewBox="0 0 530 900" x="0px" y="0px" width="530px" height="900px"><g font-family="'Hiragino Kaku Gothic ProN W3',Meiryo,sans-serif"><text x="0" y="19" font-size="14">世界中がまだ眠るころ野良猫たちが</text><text x="0" y="38" font-size="14">寒そうな三日月の下で歌い出す</text><text x="0" y="57" font-size="14">“どうだっていいじゃないかよそんなこと”</text><text x="0" y="76" font-size="14">“過ぎ去った日々にやさしいくちづけを”</text><text x="0" y="95" font-size="14">“ジャンプして屋根に乗って勇気を見せてみろよ”</text><text x="0" y="114" font-size="14"></text><text x="0" y="133" font-size="14">俺は野良猫　おまえは誰だ</text><text x="0" y="152" font-size="14">そんな爪じゃあいつらには勝てっこないぜ</text><text x="0" y="171" font-size="14">目を開いて　狙い定め　飛びかかれよ今がチャンスだ</text><text x="0" y="190" font-size="14"></text><text x="0" y="209" font-size="14">真っ黒でも俺の瞳はサーモグラフィ</text><text x="0" y="228" font-size="14">世界中で目覚めてる人達は一握り</text><text x="0" y="247" font-size="14"></text><text x="0" y="266" font-size="14">“泥だらけの愛をもって海へ行け”</text><text x="0" y="285" font-size="14">“今日の体力は今日中に使い切れ”</text><text x="0" y="304" font-size="14"></text><text x="0" y="323" font-size="14">あてのない旅の途中　君は何処？</text><text x="0" y="342" font-size="14">ぶらさがる三日月の涙</text><text x="0" y="361" font-size="14">ここにはもう　いたくない</text><text x="0" y="380" font-size="14">本能に逆行するような世界</text><text x="0" y="399" font-size="14"></text><text x="0" y="418" font-size="14">俺は野良猫　おまえは誰だ</text><text x="0" y="437" font-size="14">そんな爪じゃあいつらには勝てっこないぜ</text><text x="0" y="456" font-size="14">目を開いて　牙をむいて　飛びかかれよ今がチャンスだ</text><text x="0" y="475" font-size="14">泣いてばっかりのおまえは誰だ</text><text x="0" y="494" font-size="14">その機械がなきゃおまえはおまえじゃないのか</text><text x="0" y="513" font-size="14">目を覚ませ　俺と行こうぜ　世界はまだ喜びにあふれてる</text><rect width="530" height="900" x="0" y="0" fill="white" fill-opacity="0" /></g></svg>