<?xml version="1.0" encoding="UTF-8" standalone="no"?><!DOCTYPE svg PUBLIC "-//W3C//DTD SVG 1.0//EN" "http://www.w3.org/TR/SVG/DTD/svg10.dtd"><svg style="shape-rendering:geometricPrecision;" xml:space="preserve"  xmlns:xlink="http://www.w3.org/1999/xlink" xmlns="http://www.w3.org/2000/svg" preserveAspectRatio="xMidYMid meet" viewBox="0 0 530 900" x="0px" y="0px" width="530px" height="900px"><g font-family="'Hiragino Kaku Gothic ProN W3',Meiryo,sans-serif"><text x="0" y="19" font-size="14">地球儀を回して世界100周旅行</text><text x="0" y="38" font-size="14">キミがはしゃいでいる　まぶしい瞳で</text><text x="0" y="57" font-size="14">光のうしろ側　忍び寄る影法師</text><text x="0" y="76" font-size="14">なつかしの昨日は　いま雨の中に</text><text x="0" y="95" font-size="14">やさしくなりたい　やさしくなりたい</text><text x="0" y="114" font-size="14">自分ばかりじゃ　虚しさばかりじゃ</text><text x="0" y="133" font-size="14"></text><text x="0" y="152" font-size="14">愛なき時代に生まれたわけじゃない</text><text x="0" y="171" font-size="14">キミといきたい　キミを笑わせたい</text><text x="0" y="190" font-size="14">愛なき時代に生まれたわけじゃない</text><text x="0" y="209" font-size="14">強くなりたい　やさしくなりたい</text><text x="0" y="228" font-size="14"></text><text x="0" y="247" font-size="14">サイコロ転がして1の目が出たけれど</text><text x="0" y="266" font-size="14">双六の文字には「ふりだしに戻る」</text><text x="0" y="285" font-size="14">キミはきっと言うだろう「あなたらしいわね」と</text><text x="0" y="304" font-size="14">「1つ進めたのならよかったじゃないの!」</text><text x="0" y="323" font-size="14">強くなりたい　強くなりたい</text><text x="0" y="342" font-size="14">我慢ばかりじゃ　誤魔化しばかりじゃ</text><text x="0" y="361" font-size="14"></text><text x="0" y="380" font-size="14">愛なき時代に生まれたわけじゃない</text><text x="0" y="399" font-size="14">キミに会いたい　キミに会いたい</text><text x="0" y="418" font-size="14">愛なき時代に生まれたわけじゃない</text><text x="0" y="437" font-size="14">強くなりたい　やさしくなりたい</text><text x="0" y="456" font-size="14"></text><text x="0" y="475" font-size="14">地球儀を回して世界100周</text><text x="0" y="494" font-size="14">ボクらで回そう　待ってておくれ</text><text x="0" y="513" font-size="14"></text><text x="0" y="532" font-size="14">愛なき時代に生まれたわけじゃない</text><text x="0" y="551" font-size="14">キミに会いたい　キミを笑わせたい</text><text x="0" y="570" font-size="14">愛なき時代に生まれたわけじゃない</text><text x="0" y="589" font-size="14">強くなりたい　やさしくなりたい</text><text x="0" y="608" font-size="14">愛なき時代に生きてるわけじゃない</text><text x="0" y="627" font-size="14">手を繋ぎたい　やさしくなりたい</text><rect width="530" height="900" x="0" y="0" fill="white" fill-opacity="0" /></g></svg>