<?xml version="1.0" encoding="UTF-8" standalone="no"?><!DOCTYPE svg PUBLIC "-//W3C//DTD SVG 1.0//EN" "http://www.w3.org/TR/SVG/DTD/svg10.dtd"><svg style="shape-rendering:geometricPrecision;" xml:space="preserve"  xmlns:xlink="http://www.w3.org/1999/xlink" xmlns="http://www.w3.org/2000/svg" preserveAspectRatio="xMidYMid meet" viewBox="0 0 530 900" x="0px" y="0px" width="530px" height="900px"><g font-family="'Hiragino Kaku Gothic ProN W3',Meiryo,sans-serif"><text x="0" y="19" font-size="14">アダムとイブが水浴びをしてた午後</text><text x="0" y="38" font-size="14">空から小さな種が落ちてきた</text><text x="0" y="57" font-size="14">ニュートンが落ちたリンゴを見てる</text><text x="0" y="76" font-size="14">いつからだろう　やり残したことばかり探してる</text><text x="0" y="95" font-size="14">Tonight　Tonight</text><text x="0" y="114" font-size="14">逢いたい 逢いたい　あなたに</text><text x="0" y="133" font-size="14"></text><text x="0" y="152" font-size="14">ボクが欲しかったのはゲイラカイト</text><text x="0" y="171" font-size="14">でもあなたが買ってくれたのは奴凧</text><text x="0" y="190" font-size="14">うれしそうなあなたを見ていたら　ボクは何も言えなかった</text><text x="0" y="209" font-size="14">今度はボクがそうするんだろうな　きっとアイツに同じようなこと</text><text x="0" y="228" font-size="14">エジソンの部屋に明かりが灯って　キュリー夫人は顕微鏡を覗く</text><text x="0" y="247" font-size="14">お金よりも軽くなる命</text><text x="0" y="266" font-size="14">いつからだろう　足りないものばかり探してる</text><text x="0" y="285" font-size="14">Tonight　Tonight</text><text x="0" y="304" font-size="14">逢いたい　逢いたい</text><text x="0" y="323" font-size="14"></text><text x="0" y="342" font-size="14">もうすぐ屋根まで届きそうだよ</text><text x="0" y="361" font-size="14">二人で植えたリンゴの木</text><text x="0" y="380" font-size="14">消えることのない思い出は</text><text x="0" y="399" font-size="14">風に揺れるブランコ　今もやさしい</text><text x="0" y="418" font-size="14"></text><text x="0" y="437" font-size="14">Tonight　Tonight</text><text x="0" y="456" font-size="14">逢いたい　逢いたい</text><text x="0" y="475" font-size="14">Tonight　Tonight</text><text x="0" y="494" font-size="14">逢いたい　逢いたい</text><text x="0" y="513" font-size="14">あなたに</text><rect width="530" height="900" x="0" y="0" fill="white" fill-opacity="0" /></g></svg>