<?xml version="1.0" encoding="UTF-8" standalone="no"?><!DOCTYPE svg PUBLIC "-//W3C//DTD SVG 1.0//EN" "http://www.w3.org/TR/SVG/DTD/svg10.dtd"><svg style="shape-rendering:geometricPrecision;" xml:space="preserve"  xmlns:xlink="http://www.w3.org/1999/xlink" xmlns="http://www.w3.org/2000/svg" preserveAspectRatio="xMidYMid meet" viewBox="0 0 530 900" x="0px" y="0px" width="530px" height="900px"><g font-family="'Hiragino Kaku Gothic ProN W3',Meiryo,sans-serif"><text x="0" y="19" font-size="14">最後の一本は　あの子と食べたいんだポッキー</text><text x="0" y="38" font-size="14">最後の一本は　そうアッチからとコッチから</text><text x="0" y="57" font-size="14"></text><text x="0" y="76" font-size="14">カリウム　カルシウム　マグネシウム</text><text x="0" y="95" font-size="14">ビタミンA B 肌にE　あの子と食べたら気持ちE</text><text x="0" y="114" font-size="14">カカオとココアがショートニング!</text><text x="0" y="133" font-size="14"></text><text x="0" y="152" font-size="14">Yeah! Stick to fun! Tonight!</text><text x="0" y="171" font-size="14">Please say yes!</text><text x="0" y="190" font-size="14">Stick to fun! Tonight!</text><text x="0" y="209" font-size="14"></text><text x="0" y="228" font-size="14">最後の一本だ　ズキズキ高まるよテンション</text><text x="0" y="247" font-size="14">最後の一本だ　ドキドキきみのリアクション</text><text x="0" y="266" font-size="14"></text><text x="0" y="285" font-size="14">軽快な食感のプレッツェル 魅惑のチョコレートコーティング</text><text x="0" y="304" font-size="14">ビタミンA B 目にもE !　近づく唇ショートニング!</text><text x="0" y="323" font-size="14"></text><text x="0" y="342" font-size="14">Yeah! Stick to fun! Tonight!</text><text x="0" y="361" font-size="14">Please say yes!</text><text x="0" y="380" font-size="14">Stick to fun! Tonight!　Tonight!!</text><text x="0" y="399" font-size="14"></text><text x="0" y="418" font-size="14">Yeah! Stick to fun! Tonight!　　あなたと食べたいんだ最後のポッキー</text><text x="0" y="437" font-size="14">Please say yes! Stick to fun! Tonight!</text><text x="0" y="456" font-size="14">アッチとコッチから　あなたとポッキー</text><text x="0" y="475" font-size="14"></text><text x="0" y="494" font-size="14">そんなこと言わないで　帰るなんて言わないで　そんな目で見ないでよ</text><text x="0" y="513" font-size="14">そんなコワい顔しないで　アホなんて言わないで　あっちこっちぶたないで</text><text x="0" y="532" font-size="14"></text><text x="0" y="551" font-size="14">Yeah! Stick to fun! Tonight!　あなたと食べたいんだ最後のポッキー</text><text x="0" y="570" font-size="14">Please say yes! Stick to fun! Tonight!　 大阪生まれの　変わらぬこの味</text><text x="0" y="589" font-size="14">Yeah! Stick to fun! Tonight! アッチとコッチから　あなたとポッキー</text><text x="0" y="608" font-size="14">Please say yes!</text><text x="0" y="627" font-size="14">Stick to fun! Tonight! Tonight!!</text><text x="0" y="646" font-size="14">Pocky! Pocky!!</text><rect width="530" height="900" x="0" y="0" fill="white" fill-opacity="0" /></g></svg>