<?xml version="1.0" encoding="UTF-8" standalone="no"?><!DOCTYPE svg PUBLIC "-//W3C//DTD SVG 1.0//EN" "http://www.w3.org/TR/SVG/DTD/svg10.dtd"><svg style="shape-rendering:geometricPrecision;" xml:space="preserve"  xmlns:xlink="http://www.w3.org/1999/xlink" xmlns="http://www.w3.org/2000/svg" preserveAspectRatio="xMidYMid meet" viewBox="0 0 530 900" x="0px" y="0px" width="530px" height="900px"><g font-family="'Hiragino Kaku Gothic ProN W3',Meiryo,sans-serif"><text x="0" y="19" font-size="14">眩しい春　はしゃいだ夏　ボクらは魔法の中にいる</text><text x="0" y="38" font-size="14">いたいけな秋　白い冬　ボクらが歩いた物語</text><text x="0" y="57" font-size="14"></text><text x="0" y="76" font-size="14">どうしようもなくダサく</text><text x="0" y="95" font-size="14">浅くいじらしい春</text><text x="0" y="114" font-size="14">ぼくたちはまだ若く</text><text x="0" y="133" font-size="14">はっきりと夢を抱く</text><text x="0" y="152" font-size="14">キミを思うと早まる鼓動</text><text x="0" y="171" font-size="14">行動よりもまずは妄想</text><text x="0" y="190" font-size="14">都合よく描く未来予想</text><text x="0" y="209" font-size="14">いくら欲情しても実家の6畳</text><text x="0" y="228" font-size="14">何もかもが足りなくて</text><text x="0" y="247" font-size="14">鏡に映るのはただの学生</text><text x="0" y="266" font-size="14">よく言えば全てが未確定</text><text x="0" y="285" font-size="14">チャリで向かう無限の彼方へ</text><text x="0" y="304" font-size="14">ためてためて不意に覚醒</text><text x="0" y="323" font-size="14">まるで『マトリックス』の一作目</text><text x="0" y="342" font-size="14">いつかきっと起こす革命</text><text x="0" y="361" font-size="14">サクラが散ってもまだ学生</text><text x="0" y="380" font-size="14"></text><text x="0" y="399" font-size="14">浮かれた春の真ん中で　魔法にかかったまま</text><text x="0" y="418" font-size="14">世界はボクらの味方で　すべてはこのまま続くハズだった</text><text x="0" y="437" font-size="14"></text><text x="0" y="456" font-size="14">冷めていたって熱く</text><text x="0" y="475" font-size="14">いきり立つばかりの夏</text><text x="0" y="494" font-size="14">傷のなおりは早く</text><text x="0" y="513" font-size="14">無邪気に危険もおかす</text><text x="0" y="532" font-size="14">魔法に守られてなぜか無敵</text><text x="0" y="551" font-size="14">キミに触れていればノーダメージ</text><text x="0" y="570" font-size="14">すぐに回復するHP</text><text x="0" y="589" font-size="14">朝からガッツリいけるバイタリティ</text><text x="0" y="608" font-size="14">勢い余って毒も吐いて</text><text x="0" y="627" font-size="14">尖って　寝ないで　フル回転</text><text x="0" y="646" font-size="14">そそのかされちまって朦朧</text><text x="0" y="665" font-size="14">ちょっとずつ擦り切れて消耗</text><text x="0" y="684" font-size="14">ものともしない知力　体力</text><text x="0" y="703" font-size="14">想像力　集中力</text><text x="0" y="722" font-size="14">『T2』の敵のあの警官</text><text x="0" y="741" font-size="14">リキッドメタルみたく柔軟</text><text x="0" y="760" font-size="14">キミとトロットロに溶け合って</text><text x="0" y="779" font-size="14">時間は止まって</text><text x="0" y="798" font-size="14">永遠に思えたあの瞬間</text><text x="0" y="817" font-size="14">お盆を過ぎたらあっという間</text><text x="0" y="836" font-size="14"></text><text x="0" y="855" font-size="14">『イマジン』を書いた時　あの人はまだ30</text><text x="0" y="874" font-size="14">『地獄の黙示録』の頃　巨匠は40</text><text x="0" y="893" font-size="14">『未来世紀』を夢想した時　奇才は45</text><text x="0" y="912" font-size="14">『アドルフに告ぐ』連載開始　先生は55</text><text x="0" y="931" font-size="14">『天国への階段』を上ったのは27</text><text x="0" y="950" font-size="14">『ウッドストック』でギター燃やしたのは25</text><text x="0" y="969" font-size="14">『ジャンピング ジャック フラッシュ』　あのリフも25</text><text x="0" y="988" font-size="14">『サージェント ペパーズ ロンリーハーツ クラブバンド』27</text><text x="0" y="1007" font-size="14"></text><text x="0" y="1026" font-size="14">自覚はないがしかし</text><text x="0" y="1045" font-size="14">すっかりいたいけな秋</text><text x="0" y="1064" font-size="14">お腹や膝を冷やし</text><text x="0" y="1083" font-size="14">数値は概ね高い</text><text x="0" y="1102" font-size="14">キミがぼくのだいたいを知って</text><text x="0" y="1121" font-size="14">魔法は少しずつ現実へ</text><text x="0" y="1140" font-size="14">それでもふたり手を握って</text><text x="0" y="1159" font-size="14">重ね合わせる運命線</text><text x="0" y="1178" font-size="14">音を立てて狂ってくテンポ</text><text x="0" y="1197" font-size="14">行き過ぎた諸々をリセット</text><text x="0" y="1216" font-size="14">全てさらっていく台風</text><text x="0" y="1235" font-size="14">岸辺にポツリたたずむ哀愁</text><text x="0" y="1254" font-size="14">置き去りに進むビート</text><text x="0" y="1273" font-size="14">『ふぞろいIII』の実の心境</text><text x="0" y="1292" font-size="14">改善の兆しない温暖化</text><text x="0" y="1311" font-size="14">半ばを過ぎて未だに短パン</text><text x="0" y="1330" font-size="14"></text><text x="0" y="1349" font-size="14">今歩いているこの道は　いつか懐かしくなるだろう</text><text x="0" y="1368" font-size="14">今歩いているこの道が　いつか懐かしくなればいい</text><text x="0" y="1387" font-size="14">その時は是非君が隣に　その時も是非の隣に</text><text x="0" y="1406" font-size="14">とてもうれしいお願いします　僕はうれしいどうかよろしく</text><text x="0" y="1425" font-size="14">今歩いているこの道は　いつか懐かしくなるだろう</text><text x="0" y="1444" font-size="14">今歩いているこの道が　いつか懐かしくなればいい</text><text x="0" y="1463" font-size="14">その時は</text><text x="0" y="1482" font-size="14"></text><text x="0" y="1501" font-size="14">誰にでも必ず来る</text><text x="0" y="1520" font-size="14">痛くて厳しい冬</text><text x="0" y="1539" font-size="14">夜はやるせなく長く</text><text x="0" y="1558" font-size="14">ぼやけるキミの輪郭</text><text x="0" y="1577" font-size="14">明かりを灯し　ふたり寄り添う</text><text x="0" y="1596" font-size="14">飛び飛びになってく記憶</text><text x="0" y="1615" font-size="14">外付けなんてないメモリー</text><text x="0" y="1634" font-size="14">思い出せないあのメロディー</text><text x="0" y="1653" font-size="14">おぼつかない身体　抱きしめる</text><text x="0" y="1672" font-size="14">キミの悲しみが流れ込む</text><text x="0" y="1691" font-size="14">冷たく　深く</text><text x="0" y="1710" font-size="14">透き通った空に星が光る</text><text x="0" y="1729" font-size="14">エピソードはまだまだ『4』</text><text x="0" y="1748" font-size="14">その先の　5章　6章</text><text x="0" y="1767" font-size="14">ジェダイのように操るフォース</text><text x="0" y="1786" font-size="14">あるのか?　新たなる希望</text><text x="0" y="1805" font-size="14"></text><text x="0" y="1824" font-size="14">眩しい春　はしゃいだ夏　ボクらは魔法の中にいる</text><text x="0" y="1843" font-size="14">いたいけな秋　白い冬　ボクらが歩いた物語</text><text x="0" y="1862" font-size="14"></text><text x="0" y="1881" font-size="14">『ターミネーター』は30『 タクシードライバー』が34</text><text x="0" y="1900" font-size="14">『ET』 はなんと35『 無責任野郎』は36『 ナウシカ』は43</text><text x="0" y="1919" font-size="14">『 七人のサムライ』が44</text><text x="0" y="1938" font-size="14">『北の国から』は46　『ふぞろいのI』が49</text><text x="0" y="1957" font-size="14"></text><text x="0" y="1976" font-size="14">“ブライアンジョーンズ” 27　“ジミヘンドリックス” 27</text><text x="0" y="1995" font-size="14">“カートコバーン” 27　“ジャニスジョップリン” 27</text><text x="0" y="2014" font-size="14">“ジョンレノン” 40</text><text x="0" y="2033" font-size="14"></text><text x="0" y="2052" font-size="14">届くか?　届いたのか?　追いついたか?　イヤ気のせいか?</text><text x="0" y="2071" font-size="14">間に合うか?　追い抜いたのか?　そんな訳ねえか?　もう遅いのか?</text><text x="0" y="2090" font-size="14">届くのか?　届いたのか?　追いついたか?　イヤ気のせいか?</text><text x="0" y="2109" font-size="14">間に合うか?　追い抜いたのか?　そんな訳ねえか?　もう遅いのか?</text><rect width="530" height="900" x="0" y="0" fill="white" fill-opacity="0" /></g></svg>