<?xml version="1.0" encoding="UTF-8" standalone="no"?><!DOCTYPE svg PUBLIC "-//W3C//DTD SVG 1.0//EN" "http://www.w3.org/TR/SVG/DTD/svg10.dtd"><svg style="shape-rendering:geometricPrecision;" xml:space="preserve"  xmlns:xlink="http://www.w3.org/1999/xlink" xmlns="http://www.w3.org/2000/svg" preserveAspectRatio="xMidYMid meet" viewBox="0 0 530 900" x="0px" y="0px" width="530px" height="900px"><g font-family="'Hiragino Kaku Gothic ProN W3',Meiryo,sans-serif"><text x="0" y="19" font-size="14">OK! 泣くんじゃない!</text><text x="0" y="38" font-size="14">そうは言っても　O-GYAH!　O-GYAH!!</text><text x="0" y="57" font-size="14">OK! 泣くんじゃない!</text><text x="0" y="76" font-size="14">それが仕事さ　O-GYAH!　O-GYAH!!</text><text x="0" y="95" font-size="14">OK! わかったよ!</text><text x="0" y="114" font-size="14">ほら プーさん!　O-GYAH!　O-GYAH!!</text><text x="0" y="133" font-size="14">OK! わかったよ!</text><text x="0" y="152" font-size="14">猫も逃げ出す!　O-GYAH!　O-GYAH!!</text><text x="0" y="171" font-size="14"></text><text x="0" y="190" font-size="14">Baby! 眠れない!</text><text x="0" y="209" font-size="14">静寂をぶっ壊す!切り裂きジャック!</text><text x="0" y="228" font-size="14">Baby! 元気だな!</text><text x="0" y="247" font-size="14">次は何だい?　おしめかい?　ヨシヨシいないないバア〜!</text><text x="0" y="266" font-size="14"></text><text x="0" y="285" font-size="14">罪な奴　Oh Baby!　罪な奴</text><text x="0" y="304" font-size="14"></text><text x="0" y="323" font-size="14">OK! 泣くんじゃない!</text><text x="0" y="342" font-size="14">おしっこ出たよ!　O-GYAH!　O-GYAH!!</text><text x="0" y="361" font-size="14">OK! 泣くんじゃない!</text><text x="0" y="380" font-size="14">うんちも出たよ!　O-GYAH!　O-GYAH!!</text><text x="0" y="399" font-size="14">OK! わかったよ!</text><text x="0" y="418" font-size="14">ねえ　だっこして!　O-GYAH!　O-GYAH!!</text><text x="0" y="437" font-size="14">OK! わかったよ!</text><text x="0" y="456" font-size="14">もっとかまって!　O-GYAH!　O-GYAH!!</text><text x="0" y="475" font-size="14"></text><text x="0" y="494" font-size="14">Baby! 眠れない!</text><text x="0" y="513" font-size="14">突然パンチ!いきなりキック!</text><text x="0" y="532" font-size="14">Baby! 元気だな!</text><text x="0" y="551" font-size="14">次は何だい?　おっぱいかい?　いないないバア〜!</text><text x="0" y="570" font-size="14"></text><text x="0" y="589" font-size="14">罪な奴　Oh Baby!　罪な奴</text><text x="0" y="608" font-size="14"></text><text x="0" y="627" font-size="14">勉強なんてほどほどに</text><text x="0" y="646" font-size="14">早く一緒に酒を飲もう</text><text x="0" y="665" font-size="14">女といっぱい遊んで</text><text x="0" y="684" font-size="14">たくましく　いい奴に</text><text x="0" y="703" font-size="14"></text><text x="0" y="722" font-size="14">O-GYAH!　O-GYAH!!</text><rect width="530" height="900" x="0" y="0" fill="white" fill-opacity="0" /></g></svg>