<?xml version="1.0" encoding="UTF-8" standalone="no"?><!DOCTYPE svg PUBLIC "-//W3C//DTD SVG 1.0//EN" "http://www.w3.org/TR/SVG/DTD/svg10.dtd"><svg style="shape-rendering:geometricPrecision;" xml:space="preserve"  xmlns:xlink="http://www.w3.org/1999/xlink" xmlns="http://www.w3.org/2000/svg" preserveAspectRatio="xMidYMid meet" viewBox="0 0 530 900" x="0px" y="0px" width="530px" height="900px"><g font-family="'Hiragino Kaku Gothic ProN W3',Meiryo,sans-serif"><text x="0" y="19" font-size="14">スリーコードのMUSIC　むせび泣くセブンス</text><text x="0" y="38" font-size="14">レコード針のノイズ　胸を引っ掻く</text><text x="0" y="57" font-size="14">時代遅れの昨日は　とっくにゴミ捨て場行きさ</text><text x="0" y="76" font-size="14">覚えてみたよメジャーセブンス　だけどどうにもケツがかゆいんだ</text><text x="0" y="95" font-size="14"></text><text x="0" y="114" font-size="14">ホコリまみれのMUSIC　加速する街</text><text x="0" y="133" font-size="14">芯を食わないメディアは癒しの押し売り</text><text x="0" y="152" font-size="14">だからMUSIC　聴かせてくれよ</text><text x="0" y="171" font-size="14">だからMUSIC　連れてってくれ　三分ちょっとの宇宙旅行</text><text x="0" y="190" font-size="14"></text><text x="0" y="209" font-size="14">たかがMUSIC　されどMUSIC</text><text x="0" y="228" font-size="14">汚れたくはない　キレイにもなりたくない</text><text x="0" y="247" font-size="14">たかがMUSIC　されどMUSIC</text><text x="0" y="266" font-size="14">コイツがなけりゃ　うまく息も出来ない</text><text x="0" y="285" font-size="14"></text><text x="0" y="304" font-size="14">心のままにMUSIC　むせび泣くセブンス</text><text x="0" y="323" font-size="14">ヒマでチープなナルシストはトイレに落書き</text><text x="0" y="342" font-size="14">だからMUSIC　見せておくれよ</text><text x="0" y="361" font-size="14">だからMUSIC　連れてってくれ　明日は嵐になるらしい</text><text x="0" y="380" font-size="14"></text><text x="0" y="399" font-size="14">たかがMUSIC　されどMUSIC</text><text x="0" y="418" font-size="14">加速する街　希望とやらをもう一度見せてくれ</text><text x="0" y="437" font-size="14">たかがMUSIC　されどMUSIC</text><text x="0" y="456" font-size="14">コイツがなけりゃ　心臓も動かない</text><text x="0" y="475" font-size="14"></text><text x="0" y="494" font-size="14">たかがMUSIC　されどMUSIC</text><text x="0" y="513" font-size="14">汚れたくはない　キレイにもなりたくない</text><text x="0" y="532" font-size="14">たかがMUSIC　されどMUSIC</text><text x="0" y="551" font-size="14">オレを救えるのはオマエしかいない</text><rect width="530" height="900" x="0" y="0" fill="white" fill-opacity="0" /></g></svg>