<?xml version="1.0" encoding="UTF-8" standalone="no"?><!DOCTYPE svg PUBLIC "-//W3C//DTD SVG 1.0//EN" "http://www.w3.org/TR/SVG/DTD/svg10.dtd"><svg style="shape-rendering:geometricPrecision;" xml:space="preserve"  xmlns:xlink="http://www.w3.org/1999/xlink" xmlns="http://www.w3.org/2000/svg" preserveAspectRatio="xMidYMid meet" viewBox="0 0 530 900" x="0px" y="0px" width="530px" height="900px"><g font-family="'Hiragino Kaku Gothic ProN W3',Meiryo,sans-serif"><text x="0" y="19" font-size="14">ケイタイばっかイジってないで　ちょっとこの曲を聞いてごらんよ</text><text x="0" y="38" font-size="14">カーラジオから「gotta! gotta! gotta! gotta!」あの人が叫んでる</text><text x="0" y="57" font-size="14">誰かのナイスリクエスト！　DJグッドセレクト！</text><text x="0" y="76" font-size="14">どうして今でもこんな風に　胸にズンズンくるんだろう</text><text x="0" y="95" font-size="14">なぁオマエはどう思う　なぁオマエはどう思う</text><text x="0" y="114" font-size="14">「あぁ、そうだな世界中ロックンロールが足りないのかな？」</text><text x="0" y="133" font-size="14"></text><text x="0" y="152" font-size="14">Oh Yeah!　Oh Yeah! そのとおり　それでいい</text><text x="0" y="171" font-size="14">真っ暗な森で転んでも　明日の鍵をなくしても</text><text x="0" y="190" font-size="14">そのまままっすぐ行けばいい　オマエならわかってるだろ</text><text x="0" y="209" font-size="14"></text><text x="0" y="228" font-size="14">「ダマされた」って凹んでないで　ちょっと窓の外を見てごらんよ</text><text x="0" y="247" font-size="14">さっきからずっと幸せの鳥　車のとなりを飛んでる</text><text x="0" y="266" font-size="14">誰かのナイスリクエスト！　DJグッドセレクト！</text><text x="0" y="285" font-size="14">グッドタイミング！　ラジオからは“LOVE&amp;LOVE”</text><text x="0" y="304" font-size="14">なぁオマエはどう思う　なぁオマエはどう思う</text><text x="0" y="323" font-size="14">「黒猫と白猫ケンカしても水玉模様になれるのに」</text><text x="0" y="342" font-size="14"></text><text x="0" y="361" font-size="14">Oh Yeah!　Oh Yeah! そのとおり　それでいい</text><text x="0" y="380" font-size="14">心はウソをつけないさ　オマエも知ってるハズだろ</text><text x="0" y="399" font-size="14">夢を食い散らすモンスター　そんなモンいないってこと</text><text x="0" y="418" font-size="14"></text><text x="0" y="437" font-size="14">Oh Yeah!　Oh Yeah! そのとおり　それでいい</text><text x="0" y="456" font-size="14">Oh Yeah!　Oh Yeah! そのまんま　行けばいい</text><text x="0" y="475" font-size="14">真っ暗な森で転んでも　明日の鍵をなくしても</text><text x="0" y="494" font-size="14">狐がダンス踊っても　狸がキャンディくれても</text><text x="0" y="513" font-size="14">卑怯な仕組みが邪魔しても　誰かが傷を笑っても</text><text x="0" y="532" font-size="14">胸に枯れ葉を抱えても　恋の花散ってしまっても</text><text x="0" y="551" font-size="14">心はウソをつけないさ　オマエは知ってるハズだろ</text><text x="0" y="570" font-size="14">夢を食い散らすモンスター　そんなモンいないってこと</text><text x="0" y="589" font-size="14"></text><text x="0" y="608" font-size="14">「ムリだよ」なんてビビってないで　ちょっと窓の外を見てごらんよ</text><text x="0" y="627" font-size="14">さっきからずっと幸せの鳥　オマエのとなりを飛んでる</text><rect width="530" height="900" x="0" y="0" fill="white" fill-opacity="0" /></g></svg>