<?xml version="1.0" encoding="UTF-8" standalone="no"?><!DOCTYPE svg PUBLIC "-//W3C//DTD SVG 1.0//EN" "http://www.w3.org/TR/SVG/DTD/svg10.dtd"><svg style="shape-rendering:geometricPrecision;" xml:space="preserve"  xmlns:xlink="http://www.w3.org/1999/xlink" xmlns="http://www.w3.org/2000/svg" preserveAspectRatio="xMidYMid meet" viewBox="0 0 530 900" x="0px" y="0px" width="530px" height="900px"><g font-family="'Hiragino Kaku Gothic ProN W3',Meiryo,sans-serif"><text x="0" y="19" font-size="14">戦車からクラッカー　ピストルからシャンパン</text><text x="0" y="38" font-size="14">青空には　虹色の孔雀が　羽ばたいてる</text><text x="0" y="57" font-size="14">モナリサ笑ってる　ムンク叫ぶのやめた</text><text x="0" y="76" font-size="14">魔法のサングラス　新しい恋のメロディ</text><text x="0" y="95" font-size="14"></text><text x="0" y="114" font-size="14">口ずさむよ　大好きな歌</text><text x="0" y="133" font-size="14"></text><text x="0" y="152" font-size="14">Ahh　夢じゃないさ</text><text x="0" y="171" font-size="14">Ahh　見つけたんだ</text><text x="0" y="190" font-size="14"></text><text x="0" y="209" font-size="14">キミも持ってる</text><text x="0" y="228" font-size="14">恋のサングラス</text><text x="0" y="247" font-size="14"></text><text x="0" y="266" font-size="14">かなしみのガソリンで　走ってたオレだけど</text><text x="0" y="285" font-size="14">魔法のサングラス　迷いなき恋のメロディ</text><text x="0" y="304" font-size="14"></text><text x="0" y="323" font-size="14">なくした月を　探していたよ</text><text x="0" y="342" font-size="14"></text><text x="0" y="361" font-size="14">Ahh　夢のような</text><text x="0" y="380" font-size="14">Ahh　そのくちびる</text><text x="0" y="399" font-size="14"></text><text x="0" y="418" font-size="14">キミも持ってる</text><text x="0" y="437" font-size="14">恋のサングラス</text><text x="0" y="456" font-size="14"></text><text x="0" y="475" font-size="14">目が合えばキッス　きしむベッドでダンス</text><text x="0" y="494" font-size="14">その先はどこ?</text><text x="0" y="513" font-size="14">見たことないようなヘブン</text><text x="0" y="532" font-size="14"></text><text x="0" y="551" font-size="14">Ahh　夢じゃないさ</text><text x="0" y="570" font-size="14">Ahh　そのくちびる</text><text x="0" y="589" font-size="14">Ahh　見つけたんだ</text><text x="0" y="608" font-size="14"></text><text x="0" y="627" font-size="14">キミは持ってる</text><text x="0" y="646" font-size="14">恋のサングラス</text><text x="0" y="665" font-size="14">キミは持ってる</text><text x="0" y="684" font-size="14">恋のサングラス</text><text x="0" y="703" font-size="14">魔法の サングラス</text><text x="0" y="722" font-size="14">恋のサングラス</text><rect width="530" height="900" x="0" y="0" fill="white" fill-opacity="0" /></g></svg>